<svg width="335" height="269" fill="none" xmlns="http://www.w3.org/2000/svg"><path d="M35.202 222.902H14.518l-3.953 9.55H0l19.862-44.571h10.19l19.922 44.571H39.155l-3.953-9.55zm-3.24-7.833l-7.072-17.057-7.071 17.057h14.143zm52.622 17.383l-8.595-12.415H66.5v12.415H56.188v-44.571h19.293c3.953 0 7.375.653 10.288 1.971 2.901 1.318 5.15 3.179 6.721 5.597 1.572 2.418 2.357 5.283 2.357 8.595 0 3.312-.797 6.165-2.381 8.559-1.596 2.393-3.856 4.231-6.782 5.512l9.998 14.325H84.584v.012zm-2.611-34.162c-1.608-1.342-3.965-2.007-7.072-2.007H66.5v15.534h8.4c3.095 0 5.452-.677 7.072-2.043 1.608-1.354 2.418-3.264 2.418-5.73 0-2.49-.81-4.412-2.418-5.754zm64.082-10.409l-19.294 44.571H116.57l-19.233-44.571h11.146l13.564 31.83 13.756-31.83h10.252zm6.237 0h10.312v44.571h-10.312v-44.571zm31.177 8.402h-14.264v-8.402h38.84v8.402h-14.264v36.157h-10.312v-36.157zm36.326 31.648c-3.542-3.518-5.319-8.547-5.319-15.087v-24.963h10.312v24.577c0 7.978 3.312 11.967 9.937 11.967 3.227 0 5.681-.967 7.386-2.901 1.692-1.934 2.55-4.956 2.55-9.066v-24.577h10.191v24.963c0 6.54-1.777 11.569-5.319 15.087-3.542 3.518-8.498 5.283-14.869 5.283s-11.327-1.765-14.869-5.283zm83.194 4.521l-.06-26.74-13.117 22.026h-4.642l-13.055-21.458v26.172h-9.683v-44.571h8.534l16.683 27.696 16.428-27.696h8.462l.133 44.571h-9.683zm16.876-55.342h-3.216v-.834h7.411v.834h-3.216v8.317h-.967v-8.317h-.012zm15.135-.834v9.164h-.931v-7.326l-3.602 6.165h-.447l-3.603-6.129v7.29h-.931v-9.164h.798l3.977 6.794 3.941-6.794H335z" fill="#fff"/><path d="M39.904 265.563a4.354 4.354 0 01-1.716-1.656c-.411-.701-.617-1.499-.617-2.369 0-.871.206-1.669.617-2.37a4.435 4.435 0 011.716-1.656 5.088 5.088 0 012.454-.604c.907 0 1.717.193 2.442.604a4.52 4.52 0 011.717 1.656 4.67 4.67 0 01.628 2.382c0 .882-.205 1.668-.628 2.381a4.433 4.433 0 01-1.717 1.656c-.725.399-1.535.605-2.442.605-.906-.025-1.716-.218-2.454-.629zm4.413-.737a3.508 3.508 0 001.366-1.354 3.872 3.872 0 00.495-1.934c0-.714-.169-1.354-.495-1.935a3.508 3.508 0 00-1.366-1.354c-.58-.326-1.233-.483-1.959-.483-.725 0-1.378.157-1.958.483a3.54 3.54 0 00-1.378 1.354c-.339.581-.496 1.221-.496 1.935 0 .713.17 1.353.496 1.934a3.62 3.62 0 001.378 1.354c.58.326 1.245.483 1.958.483.726 0 1.379-.157 1.959-.483zm12.306-7.012c.665.556.991 1.318.991 2.297 0 .979-.326 1.741-.991 2.285-.665.556-1.572.822-2.732.822h-2.454v2.877h-.967v-9.115h3.409c1.172 0 2.079.278 2.744.834zm-.69 3.965c.472-.399.714-.955.714-1.668 0-.737-.242-1.305-.713-1.704-.484-.399-1.173-.593-2.067-.593h-2.418v4.558h2.418c.894 0 1.583-.206 2.067-.593zm11.074-3.965h-3.204v8.281h-.954v-8.281h-3.204v-.834h7.362v.834zm4.086 7.749a4.354 4.354 0 01-1.717-1.656c-.41-.701-.616-1.499-.616-2.369 0-.871.205-1.669.616-2.37a4.435 4.435 0 011.717-1.656 5.054 5.054 0 012.454-.604c.907 0 1.716.193 2.442.604a4.52 4.52 0 011.716 1.656c.423.713.629 1.499.629 2.382 0 .882-.206 1.668-.629 2.381a4.352 4.352 0 01-1.716 1.656c-.726.399-1.535.605-2.442.605-.907-.025-1.729-.218-2.454-.629zm4.412-.737a3.507 3.507 0 001.366-1.354 3.872 3.872 0 00.496-1.934c0-.714-.17-1.354-.496-1.935a3.507 3.507 0 00-1.366-1.354c-.58-.326-1.233-.483-1.958-.483-.725 0-1.378.157-1.959.483a3.54 3.54 0 00-1.378 1.354c-.338.581-.495 1.221-.495 1.935 0 .713.169 1.353.495 1.934.339.58.798 1.027 1.379 1.354a3.99 3.99 0 001.958.483 3.99 3.99 0 001.958-.483zm13.83-7.846v9.115h-.955v-8.281h-5.766v8.281h-.955v-9.115h7.676zm10.445 8.281v.834h-6.444v-9.115h6.25v.834H94.29v3.24h4.715v.822H94.29v3.385h5.488zm12.185 0v2.877h-.895v-2.043h-7.954l-.012 2.043h-.895l.013-2.877h.459c.604-.036 1.015-.508 1.257-1.427.23-.918.375-2.212.435-3.904l.109-2.962h6.153v8.281h1.33v.012zm-7.084-1.801c-.169.894-.459 1.499-.858 1.801h5.609v-7.447h-4.364l-.073 2.213c-.036 1.39-.133 2.526-.314 3.433zm10.13-6.48h.955v7.556l5.839-7.556h.87v9.115h-.955v-7.543l-5.838 7.543h-.871v-9.115zm18.193 0v9.115h-.943v-3.784c-.991.423-1.946.641-2.877.641-1.063 0-1.898-.266-2.49-.786-.592-.52-.894-1.257-.894-2.188v-3.01h.955v2.901c0 .702.217 1.258.664 1.644.448.387 1.064.593 1.862.593.907 0 1.838-.218 2.793-.653v-4.485h.93v.012zm10.457 8.281v.834h-6.443v-9.115h6.25v.834h-5.295v3.24h4.715v.822h-4.715v3.385h5.488zm4.679.314a4.4 4.4 0 01-1.705-1.656c-.411-.701-.616-1.499-.616-2.381 0-.883.205-1.669.616-2.382a4.272 4.272 0 011.717-1.656c.725-.399 1.547-.604 2.454-.604.677 0 1.305.108 1.873.338.569.23 1.064.556 1.463.991l-.616.617c-.714-.726-1.608-1.076-2.696-1.076-.725 0-1.378.169-1.971.496a3.65 3.65 0 00-1.39 1.353 3.722 3.722 0 00-.508 1.923c0 .713.17 1.353.508 1.922a3.66 3.66 0 001.39 1.354 4.016 4.016 0 001.971.495c1.088 0 1.994-.362 2.696-1.1l.616.617c-.399.435-.894.761-1.463 1.003-.58.23-1.208.351-1.885.351-.919-.013-1.729-.206-2.454-.605zm11.858-3.663h-2.079v4.183h-.943v-9.115h.943v4.086h2.079l3.083-4.086h1.04l-3.385 4.425 3.578 4.69h-1.112l-3.204-4.183zm7.29-4.932h.955v7.556l5.839-7.556h.87v9.115h-.955v-7.543l-5.839 7.543h-.87v-9.115zm18.108 8.281v.834h-6.455v-9.115h6.25v.834h-5.295v3.24h4.715v.822h-4.715v3.385h5.5zm14.12-7.447h-3.204v8.281h-.954v-8.281h-3.204v-.834h7.362v.834zm9.357 7.447v.834h-6.444v-9.115h6.25v.834h-5.295v3.24h4.715v.822h-4.715v3.385h5.489zm3.832-8.281l2.599 3.615 2.575-3.615h1.136l-3.119 4.376 3.361 4.739h-1.137l-2.828-3.917-2.829 3.917h-1.112l3.348-4.702-3.119-4.413h1.125zm17.129 0v9.115h-.955v-4.207h-5.706v4.207h-.967v-9.115h.967v4.062h5.706v-4.062h.955zm5.682 8.583a4.358 4.358 0 01-1.717-1.656c-.411-.701-.616-1.499-.616-2.369 0-.871.205-1.669.616-2.37a4.438 4.438 0 011.717-1.656 5.085 5.085 0 012.454-.604c.907 0 1.716.193 2.442.604a4.52 4.52 0 011.716 1.656c.411.713.629 1.499.629 2.382 0 .882-.205 1.668-.629 2.381a4.433 4.433 0 01-1.716 1.656c-.726.399-1.535.605-2.442.605-.907-.025-1.717-.218-2.454-.629zm4.412-.737a3.5 3.5 0 001.366-1.354 3.866 3.866 0 00.496-1.934c0-.714-.169-1.354-.496-1.935a3.5 3.5 0 00-1.366-1.354c-.58-.326-1.233-.483-1.958-.483-.725 0-1.378.157-1.958.483a3.54 3.54 0 00-1.379 1.354 3.765 3.765 0 00-.507 1.935c0 .713.169 1.353.507 1.934.339.58.798 1.027 1.379 1.354.58.326 1.245.483 1.958.483.725 0 1.378-.157 1.958-.483zm13.092-7.846v9.115h-.955v-8.281h-4.4l-.109 3.047c-.048 1.257-.145 2.272-.302 3.046s-.411 1.342-.738 1.717c-.326.374-.773.568-1.317.568a3.1 3.1 0 01-.726-.097l.073-.858c.145.036.29.048.435.048.387 0 .689-.145.931-.459.242-.302.423-.774.544-1.415.121-.64.205-1.487.254-2.538l.133-3.905h6.177v.012zm5.658 8.583a4.358 4.358 0 01-1.717-1.656c-.411-.701-.616-1.499-.616-2.369 0-.871.205-1.669.616-2.37a4.438 4.438 0 011.717-1.656 5.085 5.085 0 012.454-.604c.907 0 1.717.193 2.442.604a4.52 4.52 0 011.716 1.656c.412.713.629 1.499.629 2.382 0 .882-.205 1.668-.629 2.381a4.433 4.433 0 01-1.716 1.656c-.725.399-1.535.605-2.442.605-.907-.025-1.729-.218-2.454-.629zm4.4-.737a3.5 3.5 0 001.366-1.354 3.866 3.866 0 00.496-1.934c0-.714-.169-1.354-.496-1.935a3.5 3.5 0 00-1.366-1.354c-.58-.326-1.233-.483-1.958-.483-.725 0-1.378.157-1.958.483a3.54 3.54 0 00-1.379 1.354 3.765 3.765 0 00-.507 1.935c0 .713.169 1.353.507 1.934.339.58.798 1.027 1.379 1.354.58.326 1.245.483 1.958.483.725 0 1.378-.157 1.958-.483zm11.955-7.012h-4.859l.012 8.281h-.955v-9.115h5.79v.834h.012zm2.878-.834h.955v7.556l5.839-7.556h.87v9.115h-.955v-7.543l-5.839 7.543h-.87v-9.115zm11.665 0h.955v7.556l5.839-7.556h.871v9.115h-.955v-7.543l-5.839 7.543h-.871v-9.115z" fill="#00804B"/><path d="M223.93 92.357c-4.594 3.313-9.526 6.323-14.845 9.079-4.836 2.502-9.695 4.654-14.434 6.54l7.966 19.898c2.527 6.298 8.559 10.444 15.353 10.444h22.98c.738 0 1.391-.423 1.789-1.052.399-.616.46-1.39.17-2.055L223.93 92.357z" fill="url(#paint0_linear)"/><path d="M115.362 88.295c3.747-1.644 7.688-2.998 11.484-4.315 6.613-2.285 13.37-4.63 20.019-8.644l13.926-34.718a3.677 3.677 0 013.421-2.31c1.511 0 2.865.907 3.421 2.31l3.566 8.885c4.969-6.564 11.46-13.406 24.456-20.974l-5.15-11.617C185.972 6.637 175.769 0 164.539 0a28.438 28.438 0 00-26.003 16.936L105.159 92.55c1.221-.507 2.466-1.027 3.736-1.547 2.091-.858 4.255-1.74 6.467-2.708z" fill="url(#paint1_linear)"/><path d="M190.807 109.366h.048l-.036-.012-.012.012z" fill="url(#paint2_linear)"/><path d="M248.288 26.208c-2.091-1.958-8.039-4.69-17.069-4.69-7.942 0-18.266 2.115-30.451 8.704-.436.23-.871.471-1.318.725-.737.41-1.463.834-2.164 1.245-13.358 7.846-19.402 14.845-24.334 21.65-.157.206-.302.424-.448.63 1.959 6.068 2.007 11.907.109 17.068-2.224 6.02-6.963 10.868-13.72 13.987-9.043 4.195-20.793 5.742-32.156 7.241-7.374.98-14.422 1.91-20.164 3.506-1.293.544-2.563 1.1-3.784 1.656-1.994.919-3.868 1.886-5.645 2.962-4.17 2.526-7.676 5.669-10.312 10.263-.096.157-.169.338-.253.532-4.45 7.507-3.64 17.335 2.61 24.044.472.508 5.658 6.419 14.749 6.419 7.011 0 12.306-1.946 17.178-4.062 9.864-4.279 20.526-13.466 40.291-22.025 8.232-3.566 17.891-6.504 28.058-10.36 1.233-.472 2.466-.943 3.699-1.439 9.598-3.832 19.559-8.619 29.109-15.618a122.04 122.04 0 003.252-2.466 100.546 100.546 0 0011.231-10.396c24.358-26.209 15.521-45.828 11.532-49.576zM110.78 129.675c-6.105 0-11.061-4.969-11.061-11.061 0-6.105 4.968-11.061 11.061-11.061 6.105 0 11.061 4.968 11.061 11.061 0 6.104-4.956 11.061-11.061 11.061z" fill="url(#paint3_linear)"/><path d="M110.779 111.094c-4.146 0-7.519 3.373-7.519 7.52 0 4.146 3.373 7.519 7.519 7.519 4.147 0 7.52-3.373 7.52-7.519 0-4.147-3.373-7.52-7.52-7.52z" fill="url(#paint4_linear)"/><path d="M157.394 82.311c10.263-4.75 14.724-13.672 12.451-24.092-2.974 4.23-6.02 8.438-10.686 12.777a61.323 61.323 0 01-9.091 7.024 66.144 66.144 0 01-5.537 3.143c-7.543 3.832-15.074 5.996-22.17 8.62 1.293-.182 2.599-.351 3.917-.52 11.085-1.475 22.557-2.999 31.116-6.952z" fill="url(#paint5_linear)"/><defs><linearGradient id="paint0_linear" x1="121.162" y1="205.127" x2="288.023" y2="64.118" gradientUnits="userSpaceOnUse"><stop stop-color="#06A752"/><stop offset=".252" stop-color="#009950"/><stop offset=".723" stop-color="#00864C"/><stop offset="1" stop-color="#00804B"/></linearGradient><linearGradient id="paint1_linear" x1="50.769" y1="121.946" x2="217.713" y2="-19.134" gradientUnits="userSpaceOnUse"><stop stop-color="#06A752"/><stop offset=".252" stop-color="#009950"/><stop offset=".723" stop-color="#00864C"/><stop offset="1" stop-color="#00804B"/></linearGradient><linearGradient id="paint2_linear" x1="103.208" y1="183.418" x2="269.608" y2="42.798" gradientUnits="userSpaceOnUse"><stop stop-color="#06A752"/><stop offset=".252" stop-color="#009950"/><stop offset=".723" stop-color="#00864C"/><stop offset="1" stop-color="#00804B"/></linearGradient><linearGradient id="paint3_linear" x1="82.697" y1="159.729" x2="249.642" y2="18.649" gradientUnits="userSpaceOnUse"><stop stop-color="#06A752"/><stop offset=".252" stop-color="#009950"/><stop offset=".723" stop-color="#00864C"/><stop offset="1" stop-color="#00804B"/></linearGradient><linearGradient id="paint4_linear" x1="74.127" y1="149.587" x2="241.071" y2="8.507" gradientUnits="userSpaceOnUse"><stop stop-color="#06A752"/><stop offset=".252" stop-color="#009950"/><stop offset=".723" stop-color="#00864C"/><stop offset="1" stop-color="#00804B"/></linearGradient><linearGradient id="paint5_linear" x1="70.508" y1="145.304" x2="237.452" y2="4.224" gradientUnits="userSpaceOnUse"><stop stop-color="#06A752"/><stop offset=".252" stop-color="#009950"/><stop offset=".723" stop-color="#00864C"/><stop offset="1" stop-color="#00804B"/></linearGradient></defs></svg>