<svg width="335" height="268" fill="none" xmlns="http://www.w3.org/2000/svg"><path d="M35.202 222.788H14.518l-3.953 9.545H0l19.862-44.548h10.19l19.922 44.548H39.155l-3.953-9.545zm-3.24-7.83L24.89 197.91l-7.071 17.048h14.143zm52.622 17.375l-8.595-12.409H66.5v12.409H56.188v-44.548H75.48c3.953 0 7.374.652 10.288 1.969 2.901 1.317 5.15 3.178 6.721 5.594 1.572 2.417 2.357 5.281 2.357 8.591 0 3.311-.797 6.162-2.381 8.554-1.596 2.393-3.856 4.229-6.782 5.51l9.998 14.318H84.584v.012zm-2.611-34.145c-1.608-1.341-3.965-2.006-7.072-2.006H66.5v15.526h8.4c3.095 0 5.452-.677 7.072-2.042 1.608-1.353 2.418-3.262 2.418-5.727 0-2.489-.81-4.41-2.418-5.751zm64.082-10.403l-19.294 44.548h-10.19l-19.233-44.548h11.145l13.564 31.813 13.757-31.813h10.251zm6.238 0h10.311v44.548h-10.311v-44.548zm31.176 8.397h-14.265v-8.397h38.841v8.397h-14.264v36.139h-10.312v-36.139zm36.326 31.632c-3.542-3.516-5.319-8.542-5.319-15.079v-24.95h10.312v24.563c0 7.975 3.312 11.962 9.937 11.962 3.228 0 5.682-.967 7.386-2.9 1.692-1.933 2.551-4.954 2.551-9.062v-24.563h10.19v24.95c0 6.537-1.777 11.563-5.319 15.079s-8.498 5.28-14.869 5.28c-6.37 0-11.327-1.764-14.869-5.28zm83.194 4.519l-.06-26.727-13.116 22.015h-4.642l-13.056-21.447v26.159h-9.683v-44.548h8.535l16.682 27.681 16.428-27.681h8.462l.133 44.548h-9.683zm16.876-55.314h-3.216v-.833h7.411v.833h-3.216v8.313h-.967v-8.313h-.012zm15.135-.833v9.158h-.931v-7.322l-3.602 6.162h-.448l-3.602-6.125v7.285h-.931v-9.158h.798l3.977 6.79 3.941-6.79H335z" fill="#000"/><path d="M39.904 265.426a4.354 4.354 0 01-1.716-1.656c-.411-.7-.617-1.498-.617-2.368 0-.87.206-1.667.617-2.368a4.426 4.426 0 011.716-1.655 5.088 5.088 0 012.454-.604c.907 0 1.717.193 2.442.604a4.509 4.509 0 011.717 1.655c.411.713.629 1.498.629 2.38 0 .882-.206 1.668-.629 2.381a4.437 4.437 0 01-1.717 1.655c-.725.399-1.535.604-2.441.604-.907-.024-1.717-.218-2.455-.628zm4.413-.737a3.508 3.508 0 001.366-1.354 3.87 3.87 0 00.495-1.933 3.87 3.87 0 00-.495-1.933 3.499 3.499 0 00-1.366-1.353c-.58-.326-1.233-.483-1.959-.483-.725 0-1.378.157-1.958.483a3.53 3.53 0 00-1.378 1.353c-.338.58-.496 1.22-.496 1.933 0 .713.17 1.353.496 1.933.339.58.798 1.027 1.378 1.354.58.326 1.245.483 1.959.483.725 0 1.378-.157 1.958-.483zm12.306-7.007c.665.555.991 1.317.991 2.295 0 .979-.326 1.74-.99 2.284-.666.556-1.572.822-2.733.822h-2.454v2.875h-.967v-9.11h3.409c1.173 0 2.08.278 2.744.834zm-.689 3.963c.472-.399.713-.955.713-1.668 0-.737-.241-1.305-.713-1.703-.483-.399-1.172-.592-2.067-.592h-2.418v4.555h2.418c.895 0 1.584-.206 2.067-.592zm11.073-3.963h-3.203v8.276h-.955v-8.276h-3.204v-.834h7.362v.834zm4.086 7.745a4.354 4.354 0 01-1.716-1.656c-.411-.701-.617-1.498-.617-2.368 0-.87.206-1.667.617-2.368a4.426 4.426 0 011.716-1.655 5.054 5.054 0 012.454-.604c.907 0 1.717.193 2.442.604a4.51 4.51 0 011.717 1.655c.423.713.628 1.498.628 2.38 0 .882-.205 1.668-.628 2.38a4.352 4.352 0 01-1.717 1.656c-.725.398-1.535.604-2.442.604-.906-.024-1.728-.218-2.454-.628zm4.412-.737a3.508 3.508 0 001.367-1.354 3.87 3.87 0 00.495-1.933 3.87 3.87 0 00-.495-1.933 3.499 3.499 0 00-1.367-1.353c-.58-.327-1.233-.484-1.958-.484-.725 0-1.378.157-1.958.484a3.53 3.53 0 00-1.378 1.353c-.339.58-.496 1.22-.496 1.933 0 .713.17 1.353.496 1.933a3.62 3.62 0 001.378 1.354 3.99 3.99 0 001.958.483 3.99 3.99 0 001.959-.483zm13.83-7.842v9.11h-.955v-8.276h-5.766v8.276h-.955v-9.11h7.676zm10.445 8.276v.834h-6.444v-9.11h6.25v.834h-5.295v3.238h4.715v.821H94.29v3.383h5.489zm12.185 0V268h-.895v-2.042h-7.954l-.012 2.042h-.895l.012-2.876h.46c.604-.036 1.015-.507 1.257-1.425.23-.919.375-2.211.435-3.903l.109-2.96h6.153v8.276h1.33v.012zm-7.084-1.8c-.169.894-.459 1.498-.858 1.8h5.609v-7.442h-4.364l-.073 2.211c-.036 1.389-.133 2.525-.314 3.431zm10.13-6.476h.955v7.552l5.839-7.552h.87v9.11h-.955v-7.539l-5.838 7.539h-.871v-9.11zm18.194 0v9.11h-.943v-3.782c-.992.423-1.947.641-2.877.641-1.064 0-1.898-.266-2.491-.786-.592-.519-.894-1.256-.894-2.187v-3.008h.955v2.9c0 .7.217 1.256.665 1.643.447.387 1.063.592 1.861.592.907 0 1.838-.218 2.793-.652v-4.483h.931v.012zm10.456 8.276v.834h-6.443v-9.11h6.25v.834h-5.295v3.238h4.715v.821h-4.715v3.383h5.488zm4.679.315a4.4 4.4 0 01-1.705-1.656c-.411-.7-.617-1.498-.617-2.38 0-.882.206-1.667.617-2.38a4.263 4.263 0 011.717-1.655c.725-.399 1.547-.605 2.454-.605.677 0 1.305.109 1.873.339a3.974 3.974 0 011.463.99l-.616.617c-.714-.725-1.608-1.076-2.696-1.076-.726 0-1.378.17-1.971.496a3.65 3.65 0 00-1.39 1.353 3.715 3.715 0 00-.508 1.921 3.684 3.684 0 001.898 3.274 4.003 4.003 0 001.971.496c1.088 0 1.994-.363 2.696-1.1l.616.617c-.399.434-.894.761-1.463 1.002-.58.23-1.209.351-1.885.351-.919-.012-1.729-.206-2.454-.604zm11.858-3.661h-2.079v4.18h-.943v-9.11h.943v4.084h2.079l3.083-4.084h1.04l-3.385 4.422 3.578 4.688h-1.112l-3.204-4.18zm7.29-4.93h.955v7.552l5.839-7.552h.87v9.11h-.955v-7.539l-5.839 7.539h-.87v-9.11zm18.109 8.276v.834h-6.456v-9.11h6.25v.834h-5.295v3.238h4.715v.821h-4.715v3.383h5.501zm14.119-7.442h-3.203v8.276h-.955v-8.276h-3.204v-.834h7.362v.834zm9.357 7.442v.834h-6.443v-9.11h6.249v.834h-5.294v3.238h4.714v.821h-4.714v3.383h5.488zm3.832-8.276l2.599 3.613 2.575-3.613h1.136l-3.119 4.374 3.361 4.736h-1.136l-2.829-3.915-2.829 3.915h-1.112l3.349-4.7-3.119-4.41h1.124zm17.129 0v9.11h-.955v-4.205h-5.705v4.205h-.967v-9.11h.967v4.06h5.705v-4.06h.955zm5.682 8.579a4.355 4.355 0 01-1.716-1.656c-.411-.701-.617-1.498-.617-2.368 0-.87.206-1.667.617-2.368a4.426 4.426 0 011.716-1.655 5.09 5.09 0 012.454-.604c.907 0 1.717.193 2.442.604a4.52 4.52 0 011.717 1.655c.411.713.628 1.498.628 2.38 0 .882-.205 1.668-.628 2.38a4.442 4.442 0 01-1.717 1.656c-.725.398-1.535.604-2.442.604-.907-.024-1.716-.218-2.454-.628zm4.412-.737a3.5 3.5 0 001.366-1.354 3.86 3.86 0 00.496-1.933 3.86 3.86 0 00-.496-1.933 3.491 3.491 0 00-1.366-1.353c-.58-.327-1.233-.484-1.958-.484-.725 0-1.378.157-1.958.484a3.522 3.522 0 00-1.378 1.353 3.748 3.748 0 00-.508 1.933c0 .713.169 1.353.508 1.933.338.58.797 1.027 1.378 1.354.58.326 1.245.483 1.958.483.725 0 1.378-.157 1.958-.483zm13.092-7.842v9.11h-.955v-8.276h-4.4l-.109 3.044c-.048 1.257-.145 2.272-.302 3.045-.157.774-.411 1.341-.737 1.716-.327.374-.774.568-1.318.568a3.04 3.04 0 01-.725-.097l.072-.858c.145.037.29.049.436.049.386 0 .689-.145.93-.459.242-.303.423-.774.544-1.414.121-.641.206-1.486.254-2.537l.133-3.903h6.177v.012zm5.658 8.579a4.352 4.352 0 01-1.717-1.656c-.411-.701-.616-1.498-.616-2.368 0-.87.205-1.667.616-2.368a4.429 4.429 0 011.717-1.655 5.085 5.085 0 012.454-.604c.907 0 1.716.193 2.442.604a4.51 4.51 0 011.716 1.655c.411.713.629 1.498.629 2.38 0 .882-.205 1.668-.629 2.38a4.433 4.433 0 01-1.716 1.656c-.726.398-1.535.604-2.442.604-.907-.024-1.729-.218-2.454-.628zm4.4-.737a3.507 3.507 0 001.366-1.354 3.86 3.86 0 00.496-1.933 3.86 3.86 0 00-.496-1.933 3.498 3.498 0 00-1.366-1.353c-.58-.327-1.233-.484-1.958-.484-.726 0-1.378.157-1.959.484a3.535 3.535 0 00-1.378 1.353 3.757 3.757 0 00-.507 1.933c0 .713.169 1.353.507 1.933.339.58.798 1.027 1.378 1.354.581.326 1.246.483 1.959.483.725 0 1.378-.157 1.958-.483zm11.956-7.008h-4.86l.012 8.276h-.955v-9.11h5.791v.834h.012zm2.877-.834h.955v7.552l5.839-7.552h.87v9.11h-.955v-7.539l-5.839 7.539h-.87v-9.11zm11.665 0h.955v7.552l5.839-7.552h.871v9.11h-.955v-7.539l-5.839 7.539h-.871v-9.11z" fill="#00804B"/><path d="M223.93 92.31c-4.594 3.31-9.526 6.319-14.845 9.074-4.836 2.501-9.695 4.651-14.434 6.536l7.966 19.888c2.527 6.295 8.559 10.439 15.353 10.439h22.98c.738 0 1.391-.423 1.79-1.051a2.18 2.18 0 00.169-2.054L223.93 92.31z" fill="url(#paint0_linear)"/><path d="M115.362 88.25c3.747-1.643 7.688-2.996 11.484-4.314 6.612-2.283 13.37-4.627 20.019-8.638l13.926-34.701a3.677 3.677 0 013.421-2.308c1.511 0 2.865.906 3.421 2.308l3.566 8.88c4.969-6.56 11.46-13.399 24.455-20.962l-5.149-11.612C185.971 6.633 175.769 0 164.538 0a28.438 28.438 0 00-26.002 16.927l-33.377 75.576c1.221-.507 2.466-1.027 3.735-1.547 2.092-.857 4.256-1.74 6.468-2.706z" fill="url(#paint1_linear)"/><path d="M190.807 109.31h.048l-.036-.013-.012.013z" fill="url(#paint2_linear)"/><path d="M248.288 26.195c-2.091-1.958-8.039-4.688-17.069-4.688-7.942 0-18.266 2.114-30.451 8.7-.435.229-.87.47-1.318.724-.737.41-1.463.834-2.164 1.244-13.358 7.842-19.402 14.838-24.334 21.64-.157.206-.302.423-.447.628 1.958 6.066 2.006 11.902.108 17.06-2.224 6.018-6.963 10.863-13.72 13.98-9.042 4.193-20.793 5.74-32.156 7.237-7.374.98-14.422 1.91-20.164 3.504-1.293.544-2.562 1.1-3.783 1.656-1.995.918-3.869 1.885-5.646 2.96-4.17 2.525-7.676 5.666-10.311 10.258-.097.157-.17.338-.254.531-4.449 7.504-3.639 17.327 2.61 24.032.472.508 5.658 6.416 14.749 6.416 7.011 0 12.306-1.945 17.178-4.06 9.864-4.277 20.526-13.459 40.291-22.014 8.233-3.564 17.891-6.5 28.058-10.354 1.233-.472 2.466-.943 3.699-1.438 9.598-3.83 19.56-8.615 29.11-15.61a122 122 0 003.251-2.466 100.434 100.434 0 0011.231-10.39c24.358-26.195 15.521-45.805 11.532-49.55zM110.78 129.608c-6.105 0-11.06-4.966-11.06-11.055 0-6.102 4.967-11.056 11.06-11.056 6.105 0 11.061 4.966 11.061 11.056 0 6.101-4.956 11.055-11.061 11.055z" fill="url(#paint3_linear)"/><path d="M110.78 111.037c-4.146 0-7.519 3.371-7.519 7.516 0 4.144 3.373 7.515 7.519 7.515 4.147 0 7.519-3.371 7.519-7.515 0-4.145-3.372-7.516-7.519-7.516z" fill="url(#paint4_linear)"/><path d="M157.394 82.27c10.263-4.75 14.724-13.666 12.451-24.081-2.974 4.229-6.02 8.434-10.686 12.771a61.278 61.278 0 01-9.091 7.02 66.159 66.159 0 01-5.536 3.141c-7.544 3.83-15.075 5.993-22.171 8.615 1.294-.181 2.599-.35 3.917-.52 11.085-1.473 22.557-2.996 31.116-6.947z" fill="url(#paint5_linear)"/><defs><linearGradient id="paint0_linear" x1="121.163" y1="205.022" x2="287.952" y2="64.001" gradientUnits="userSpaceOnUse"><stop stop-color="#06A752"/><stop offset=".252" stop-color="#009950"/><stop offset=".723" stop-color="#00864C"/><stop offset="1" stop-color="#00804B"/></linearGradient><linearGradient id="paint1_linear" x1="50.769" y1="121.883" x2="217.641" y2="-19.208" gradientUnits="userSpaceOnUse"><stop stop-color="#06A752"/><stop offset=".252" stop-color="#009950"/><stop offset=".723" stop-color="#00864C"/><stop offset="1" stop-color="#00804B"/></linearGradient><linearGradient id="paint2_linear" x1="103.225" y1="183.323" x2="269.549" y2="42.724" gradientUnits="userSpaceOnUse"><stop stop-color="#06A752"/><stop offset=".252" stop-color="#009950"/><stop offset=".723" stop-color="#00864C"/><stop offset="1" stop-color="#00804B"/></linearGradient><linearGradient id="paint3_linear" x1="82.698" y1="159.647" x2="249.57" y2="18.555" gradientUnits="userSpaceOnUse"><stop stop-color="#06A752"/><stop offset=".252" stop-color="#009950"/><stop offset=".723" stop-color="#00864C"/><stop offset="1" stop-color="#00804B"/></linearGradient><linearGradient id="paint4_linear" x1="74.128" y1="149.511" x2="241.001" y2="8.419" gradientUnits="userSpaceOnUse"><stop stop-color="#06A752"/><stop offset=".252" stop-color="#009950"/><stop offset=".723" stop-color="#00864C"/><stop offset="1" stop-color="#00804B"/></linearGradient><linearGradient id="paint5_linear" x1="70.508" y1="145.229" x2="237.381" y2="4.137" gradientUnits="userSpaceOnUse"><stop stop-color="#06A752"/><stop offset=".252" stop-color="#009950"/><stop offset=".723" stop-color="#00864C"/><stop offset="1" stop-color="#00804B"/></linearGradient></defs></svg>