<svg width="28" height="25" fill="none" xmlns="http://www.w3.org/2000/svg"><path d="M27.485 11.09L17.057.663c-.73-.73-1.978-.212-1.978.82v4.64C8.443 6.398 2.59 10.917.734 17.348c-.62 2.146-.774 3.913-.726 5.814.007.224.008.288.008.335 0 1.177 1.552 1.604 2.155.593 1.29-2.17 2.757-3.845 4.363-5.084 2.903-2.24 5.926-2.888 8.545-2.626v5.958c0 1.032 1.248 1.55 1.978.82l10.428-10.429a1.159 1.159 0 000-1.638zm-10.088 8.45v-4.154c0-.53-.361-.994-.876-1.123a6.973 6.973 0 00-.693-.127c-3.282-.46-7.095.247-10.71 3.035a17.951 17.951 0 00-2.535 2.395l.017-.092c.093-.476.211-.968.36-1.484 1.654-5.733 7.063-9.69 13.052-9.561l.186.004a1.159 1.159 0 001.198-1.158V4.28l7.631 7.631-7.63 7.63z" fill="#C4C4C4"/></svg>