<svg width="90" height="120" fill="none" xmlns="http://www.w3.org/2000/svg"><path d="M21.652 120h46.354c11.947 0 21.652-9.705 21.652-21.653V21.653C89.658 9.705 79.953 0 68.006 0H21.652C9.705 0 0 9.705 0 21.653v76.73C0 110.294 9.74 120 21.652 120zM68.006 7.007c8.058 0 14.645 6.552 14.645 14.646v76.73c0 8.058-6.552 14.645-14.645 14.645H21.652c-8.058 0-14.645-6.552-14.645-14.646v-76.73c0-8.058 6.552-14.645 14.645-14.645h46.354z" fill="#DCDCDC"/><path d="M46.388 26.733c2.488 3.189 6.622 3.119 8.83-.105 2.346-3.433 2.101-9.214-.877-12.262-1.156-1.192-3.048-2.278-4.555-2.453-6.481.245-6.902 10.37-3.398 14.82zM57.46 81.88c-2.558-4.134-4.695-8.408-5.887-13.208-.946-3.82-.7-7.393.736-10.897 1.227-2.943 2.558-5.816 3.714-8.759 3.328-8.303-2.102-18.534-12.543-17.973-7.708.42-13.77 4.204-18.394 10.44-3.329 4.485-3.083 9.565-.946 14.68 1.156 2.734 2.522 5.396 3.994 7.954 3.188 5.466 5.36 11.352 7.288 17.413 1.857 5.886 3.959 11.702 6.411 17.343 1.016 2.383 2.908 4.555 4.765 6.342 3.75 3.609 8.129 3.714 12.578.771 3.89-2.593 5.466-6.938 4.205-11.913-.07-.455-3.82-8.759-5.921-12.192zM35.14 24.876c.176.315.526 1.261 1.122 1.962 1.612 1.997 4.24 1.927 5.115-.385.596-1.507.736-3.54.35-5.15-.63-2.558-2.872-3.855-4.589-3.19-1.892.702-2.873 3.54-1.997 6.763zm-1.47 1.437c-.806-2.803-2.488-4.24-4.205-3.924-1.646.315-2.592 2.172-2.242 4.59.105.735.35 1.47.7 2.137.701 1.506 1.823 2.452 3.47 2.172 1.646-.28 2.277-1.612 2.417-3.224.035-.7-.14-1.471-.14-1.751zM21.582 33.25c.596 2.067 2.313 3.433 3.75 2.978 1.4-.42 2.136-2.558 1.61-4.59-.56-2.102-2.172-3.434-3.678-3.048-1.577.42-2.313 2.487-1.682 4.66zm-4.029 6.727c.525 1.962 2.172 3.433 3.433 3.118 1.227-.315 1.962-2.382 1.507-4.204-.49-1.962-2.067-3.364-3.469-3.014-1.296.316-1.962 2.208-1.471 4.1z" fill="#DCDCDC"/></svg>