<svg width="20" height="32" fill="none" xmlns="http://www.w3.org/2000/svg"><path d="M13.813 8.59l.092.085c.006-.006.16-.16.95-.16h0l2.607-.002s0 0 0 0c.913 0 1.663-.72 1.663-1.612V2.494c0-.892-.749-1.611-1.66-1.613v.125-.125L13.59.875h0c-2.417 0-4.483.772-5.965 2.242-1.475 1.463-2.25 3.502-2.25 5.887v2.252H2.538c-.913 0-1.663.719-1.663 1.612v4.746c0 .893.75 1.613 1.663 1.613h2.838V30.18c0 .893.75 1.613 1.664 1.613h5.078c.914 0 1.664-.72 1.664-1.613V19.227h3.497c.913 0 1.663-.72 1.663-1.612 0 0 0 0 0 0l.002-4.747v0a1.61 1.61 0 00-.857-1.41h0a1.73 1.73 0 00-.82-.203h-3.485V9.502c0-.3.02-.5.049-.63.028-.131.06-.182.075-.197l-.093-.084zm0 0c-.071.079-.156.3-.156.912v1.753l3.805-2.867-2.608.001c-.795 0-.997.154-1.04.202zm-2.14 9.707v11.447H7.485V18.297c0-.62-.521-1.118-1.152-1.118h-3.35v-3.876h3.35c.63 0 1.152-.498 1.152-1.118V9.004c0-1.888.588-3.405 1.637-4.45 1.049-1.045 2.572-1.631 4.466-1.631 0 0 0 0 0 0l3.427.005v3.537l-2.162.001s0 0 0 0c-.728 0-1.824.081-2.527.85-.582.639-.655 1.481-.655 2.186v2.683c0 .62.521 1.118 1.152 1.118h4.01l-.001 3.876h-4.008c-.632 0-1.152.498-1.152 1.118z" fill="#C4C4C4" stroke="#BDBFC6" stroke-width=".25"/></svg>