<svg width="166" height="41" fill="none" xmlns="http://www.w3.org/2000/svg"><path d="M39.987 26.64a33.842 33.842 0 01-4.234 2.62 44.857 44.857 0 01-4.118 1.886l2.272 5.947c.72 1.82 2.44 3.22 4.377 3.22h6.557c.208 0 .395-.333.512-.513.117-.18.132-.502.046-.697l-5.412-12.464zm-30.97-1.175c1.07-.471 2.19-.866 3.276-1.245 1.887-.662 3.814-1.338 5.71-2.492l3.971-10.013a1.048 1.048 0 011.953 0l1.019 2.563c1.415-1.891 3.27-3.865 6.978-6.05l-1.466-3.352C29.16 1.912 26.25 0 23.044 0c-3.21 0-6.121 1.917-7.42 4.886l-9.523 21.81c.35-.149.705-.298 1.065-.446.598-.251 1.217-.508 1.85-.785zM30.54 31.54l.016.006-.016-.005zm-22.832.437c-1.217 0-2.21 1.004-2.21 2.235 0 1.23.993 2.235 2.21 2.235 1.218 0 2.212-1.005 2.212-2.235a2.225 2.225 0 00-2.212-2.235z" fill="#fff"/><path d="M21.03 23.8c2.978-1.395 4.26-4.02 3.576-7.081-.862 1.24-1.74 2.481-3.099 3.758a18.03 18.03 0 01-4.173 2.933c-2.252 1.153-4.498 1.784-6.603 2.589a94.38 94.38 0 011.405-.19c3.17-.425 6.445-.861 8.895-2.01z" fill="#fff"/><path d="M46.935 7.562c-.598-.564-2.292-1.353-4.868-1.353-2.267 0-5.214.61-8.688 2.512-.126.067-.248.138-.375.21-.213.118-.416.241-.618.359-3.809 2.261-5.538 4.281-6.943 6.245-.061.082-.117.164-.178.246.538 1.717.548 3.373.016 4.834-.63 1.723-1.968 3.102-3.88 4-2.571 1.204-5.918 1.65-9.154 2.086-1.917.256-3.758.502-5.314.892-.523.22-1.03.436-1.512.662a16.45 16.45 0 00-1.607.85c-1.192.729-2.191 1.636-2.942 2.959-.025.046-.05.097-.07.154-1.269 2.163-1.04 4.998.745 6.931C1.684 39.298 3.159 41 5.756 41c2.003 0 3.51-.564 4.904-1.174 2.815-1.236 5.857-3.886 11.497-6.352 2.348-1.026 5.101-1.877 8.002-2.99.35-.133.7-.271 1.055-.415 2.739-1.102 5.578-2.486 8.307-4.501a29.07 29.07 0 004.133-3.712C50.597 14.3 48.076 8.64 46.935 7.562zM7.708 37.334c-1.704 0-3.093-1.4-3.093-3.127 0-1.723 1.384-3.128 3.093-3.128 1.71 0 3.094 1.4 3.094 3.128-.005 1.728-1.39 3.127-3.094 3.127zm57.479-12.637h-6.958L56.9 27.942h-3.555l6.68-15.155h3.428l6.704 15.155h-3.641l-1.33-3.245zm-1.096-2.661l-2.378-5.804-2.378 5.804h4.756zm17.699 5.911l-2.89-4.22h-3.19v4.22h-3.469V12.792h6.486c1.33 0 2.48.225 3.46.671.978.446 1.728 1.082 2.256 1.908.527.82.79 1.794.79 2.922 0 1.128-.268 2.097-.8 2.912-.538.815-1.294 1.44-2.282 1.871l3.362 4.87H81.79zm-.877-11.618c-.542-.456-1.334-.682-2.378-.682H75.71v5.281h2.825c1.04 0 1.836-.23 2.378-.692.543-.461.812-1.113.812-1.948.005-.846-.27-1.502-.812-1.959zm21.558-3.537l-6.486 15.155h-3.428L86.09 12.792h3.748l4.559 10.823 4.625-10.823h3.448zm2.095 0h3.469v15.155h-3.469V12.792zm10.487 2.855h-4.797v-2.855h13.064v2.855h-4.798v12.295h-3.469V15.647zm12.222 10.762c-1.191-1.2-1.79-2.907-1.79-5.132v-8.485h3.469v8.357c0 2.712 1.116 4.07 3.342 4.07 1.085 0 1.912-.328 2.485-.984.573-.656.857-1.687.857-3.086v-8.357h3.428v8.485c0 2.225-.598 3.932-1.79 5.132-1.192 1.2-2.86 1.794-5 1.794-2.146.005-3.809-.594-5.001-1.794zm27.979 1.538l-.02-9.095-4.413 7.49h-1.561l-4.392-7.295v8.895h-3.256v-15.15h2.87l5.609 9.418 5.523-9.418h2.85l.041 15.155h-3.251zm5.68-18.985h-1.08v-.287h2.49v.287h-1.086v2.83h-.324v-2.83zM166 8.675v3.117h-.314V9.3l-1.212 2.097h-.153l-1.212-2.081v2.476h-.314V8.675h.269l1.339 2.307 1.323-2.307H166z" fill="#fff"/></svg>