<svg width="871" height="1222" fill="none" xmlns="http://www.w3.org/2000/svg"><g opacity=".2" fill="#818181"><path d="M450.578 254.097c-5.169 3.62-9.795 5.841-12.789 6.547-6.617 1.552-13.448-.849-17.284-3.915-2.027-1.62-3.133-3.357-3.119-4.89.025-2.821-13.676-29.752-19.526-41.25-1.889-3.716-3.256-6.4-3.77-7.48-1.014-2.121-1.957-7.579.942-14.579 3.304-7.975 12.277-19.269 36.269-27.749 13.936-4.927 26.3-3.125 35.761 5.207 12.59 11.091 17.327 31.674 15.182 41.551-3.816 17.582-13.624 30.235-21.181 37.749-3.528 3.502-7.118 6.451-10.485 8.809zm-39.682-81.285c-8.253 5.779-12.288 11.691-14.233 16.396-2.665 6.435-1.807 11.406-.981 13.14.509 1.062 1.869 3.737 3.753 7.436 11.855 23.296 19.744 39.367 19.716 42.065-.008.947.909 2.257 2.454 3.494 3.499 2.803 9.732 4.993 15.771 3.575 4.702-1.105 13.728-6.234 22.431-14.89 7.385-7.344 16.975-19.706 20.697-36.869l.866.189-.866-.189c2.049-9.45-2.52-29.182-14.627-39.849-9.077-8-20.516-9.639-34.002-4.868-8.989 3.186-15.809 6.751-20.979 10.37zm-60.786 55.147c-2.745 1.922-5.977 3.326-9.803 4.06-21.989 4.212-37.847-11.685-43.27-28.237-2.334-7.108-3.903-12.799-4.93-16.925-.388 5.643-1.657 13.598-5.387 21.013-8.318 16.539-17.009 26.023-27.34 29.852-11.753 4.36-18.427 4.95-26.912-3.056-7.55-7.124-26.042-26.209-34.613-49.451-4.07-11.042-3.623-24.174 1.259-36.991 4.372-11.471 11.863-20.897 19.547-24.603 8.934-4.303 24.589-7.291 39.301-1.562 12.914 5.029 22.887 15.605 29.664 31.452.439-6.046 2.946-17.263 14.437-27.206 8.451-7.315 18.52-10.51 28.356-9.008 9.791 1.498 18.458 7.619 24.4 17.232 1.007 1.627 1.99 3.188 2.937 4.699 9.034 14.355 15.002 23.847 11.115 41.782-.549 2.537-1.054 5.147-1.584 7.92-2.856 14.812-6.012 31.211-17.177 39.029zm-59.192-47.683c.14-.098.306-.166.489-.183a1.052 1.052 0 011.151.834c.734 3.55 2.502 11.165 6.155 22.304 5.195 15.84 20.317 31.062 41.257 27.052 3.51-.672 6.491-1.97 9.041-3.756 10.673-7.473 13.756-23.482 16.533-37.941.535-2.776 1.042-5.402 1.594-7.955 3.731-17.23-2.082-26.47-10.883-40.463a653.596 653.596 0 01-2.944-4.708c-5.663-9.165-13.889-14.992-23.161-16.411-9.319-1.428-18.879 1.625-26.935 8.595-12.572 10.88-13.913 23.288-13.905 28.114 0 .623-.43 1.145-1.041 1.261a1.268 1.268 0 01-1.436-.786c-6.593-16.523-16.518-27.465-29.516-32.525-14.179-5.521-29.273-2.642-37.886 1.506-7.292 3.514-14.442 12.569-18.661 23.636-4.733 12.416-5.181 25.112-1.255 35.75 8.445 22.894 26.706 41.739 34.169 48.778 7.85 7.406 13.821 6.859 25.08 2.684 9.887-3.662 18.262-12.876 26.375-28.988 5.135-10.212 5.447-21.519 5.337-25.907a1.043 1.043 0 01.442-.891z"/><path d="M251.379 228.055c-3.358 2.352-7.807 2.324-11.053 1.85-3.783-.549-7.381-1.941-8.678-2.964-.18-.137-.741-.484-1.4-.881-3.246-1.977-10.844-6.61-17.04-13.63-7.811-8.852-10.75-18.388-8.723-28.334 1.398-6.869 6.315-12.195 14.227-15.396 5.891-2.38 11.286-2.752 11.512-2.765h.118c17.987 1.193 26.945 15.478 27.314 16.085.078.111 2.304 3.488 4.017 8.296 2.289 6.433 2.512 12.347.641 17.098-4.604 11.702-7.859 18.086-10.232 20.094-.227.2-.462.378-.703.547zm-37.597-54.691c-3.539 2.478-6.53 6.025-7.564 11.082-2.989 14.691 5.408 28.185 24.952 40.103.82.499 1.312.797 1.577 1.007 2.093 1.655 12.839 5.13 18.192.606 2.086-1.765 5.358-8.292 9.73-19.396 4.155-10.565-4.412-23.67-4.503-23.8-.105-.169-8.87-14.111-25.878-15.27-.782.07-9.674.884-16.506 5.668z"/><path d="M260.479 232.204c-3.874 2.712-8.737 5.197-14.562 6.023-12.083 1.712-35.516-29.272-36.509-30.591-.275-.354-6.985-9.028-8.589-17.872-.346-1.759-3-17.273 7.617-30.106 3.984-4.818 10.692-8.186 18.889-9.489 7.736-1.229 16.101-.462 22.961 2.099 14.055 5.255 18.659 8.073 24.255 17.894 5.193 9.107 6.513 16.627 4.559 25.955-1.192 5.672-5.402 24.491-9.654 28.382-.393.359-.838.781-1.324 1.253-1.842 1.739-4.392 4.176-7.643 6.452zm-51.369-71.987l.679.563c-10.099 12.207-7.569 26.971-7.247 28.608l.014.059c1.526 8.407 8.185 17.027 8.251 17.112.07.09 6.064 8.047 13.4 15.687 9.544 9.943 16.964 14.867 21.458 14.226 10.15-1.438 17.351-8.315 21.223-12.008.498-.474.949-.908 1.352-1.272 3.068-2.814 6.828-16.542 9.113-27.444 2.172-10.353-.174-17.369-4.362-24.715-5.36-9.405-9.547-11.955-23.339-17.11-12.611-4.715-31.638-3.083-39.868 6.86l-.674-.566zm377.404 180.685c-5.555 3.89-21.843 1.791-31.619.068-1.485-.262-3.493-.462-5.82-.701-14.076-1.419-40.272-4.056-49.977-28.601-12.054-30.501-3.758-43.307 3.533-50.282 4.016-3.843 10.52-5.448 18.31-4.514 6.897.825 13.907 3.551 18.755 7.293 18.79 14.508 38.559 40.181 39.835 47.449.453 2.575 2.195 6.318 4.036 10.282 3.245 6.976 6.598 14.187 4.214 17.752-.319.473-.747.89-1.267 1.254zm-81.207-79.43c-.52.364-1.005.759-1.461 1.195-6.92 6.625-14.774 18.845-3.106 48.35 9.307 23.543 34.807 26.113 48.507 27.491 2.36.237 4.4.442 5.948.715 17.206 3.034 28.838 2.821 31.104-.565 1.83-2.735-1.452-9.795-4.344-16.02-1.896-4.072-3.681-7.916-4.171-10.722-1.208-6.844-21.021-32.334-39.177-46.352-8.908-6.879-25.038-9.878-33.3-4.092z"/><path d="M747.54 1164.47c-8.356 5.85-17.2 10.41-26.33 13.54-20.918 7.16-45.117 2.11-71.917-15.02-22.234-14.21-45.604-36.17-69.459-65.29-20.584-25.12-32.832-49.32-38.552-76.17-6.74-31.643-4.685-68.624 6.28-113.055 8.38-33.949 15.73-52.613 21.1-66.236 9.401-23.86 12.917-32.786 5.707-83.415-5.566-39.086-14.841-74.307-26.826-101.852-11.959-27.487-26.147-46.277-41.033-54.341-27.091-14.669-82.538 4.421-106.215 12.57-2.934 1.009-5.47 1.885-7.451 2.525-4.171 1.349-26.542 7.862-57.564 3.829-33.024-4.292-62.682-18.673-88.143-42.748-30.193-28.549-45.297-59.274-52.655-80.023-8.484-23.939-9.024-40.436-9.024-40.595.001-.077.005-.142.006-.219.154-1.638 1.649-16.417 7.378-30.416.015-.038.011-.084-.021-.11l-5.503-5.754c-4.001-4.182-9.011-7.284-14.483-8.969-4.602-1.422-21.095-7.461-40.132-25.673-19.212-18.373-34.146-42.399-44.378-71.414-6.859-19.444-10.483-37.332-10.771-53.174-.233-12.718 1.669-24.148 5.654-33.985 6.636-16.392 16.698-22.732 17.626-23.285.68-.531 8.327-6.384 19.934-11.535 11.188-4.969 28.473-10.295 47.272-7.477 11.748 1.762 21.914 6.327 30.25 13.586-3.527-6.985-5.954-14.325-7.227-21.857-4.672-27.668 13.904-50.574 23.806-57.507l.177-.124c7.973-5.486 28.346-14.31 38.849-11.608 14.214 3.655 30.71 16.538 35.424 25.177a.245.245 0 00.221.129.25.25 0 00.228-.139c3.136-6.079 11.825-20.725 24.74-25.422 7.465-2.714 18.694-4.825 29.794.54 10.396 5.02 18.332 15.563 23.587 31.333 6.289 18.866 8.344 27.81 8.958 31.99a.31.31 0 00.246.271c.077.022.23.032.338-.119 5.01-6.596 17.755-22.22 27.913-24.875 1.621-.422 3.259-.96 4.995-1.525 11.525-3.765 25.862-8.446 53.586 13.809 29.982 24.066 16.726 58.563 12.362 69.897-.295.774-.555 1.441-.755 1.996-2.176 6.016-11.802 20.55-24.741 29.61-6.591 4.615-14.038 7.808-21.797 7.739-12.572-.112-26.249-5.618-36.592-14.725-8.453-7.446-18.582-20.696-20.456-42.273-2.094 7.695-6.686 20.532-15.018 26.366-1.598 1.119-3.329 1.978-5.213 2.501-7.227 1.994-16.775 3.869-26.53.622-10.813-3.6-19.84-12.597-27.604-27.51-.008-.022-.033-.067-.103-.059a.095.095 0 00-.094.073c-2.046 6.222-8.821 24.421-20.219 32.402-2.225 1.558-4.62 2.723-7.195 3.336-18.432 4.399-39.711-12.665-40.608-13.393-.076-.058-6.6-5.402-14.78-14.119 7.405 16.437 10.331 37.777 8.701 63.531 1.113 3.706 15.626 52.654 13.942 76.128-.006.031-.011.132.11.186a.17.17 0 00.205-.033c10.673-10.339 66.661-62.118 120.618-66.364 59.493-4.683 98.493 8.105 98.882 8.235l.1.034.087.056c.712.443 71.366 44.162 88.261 42.57.541-.255 1.513-.894 1.501-1.474-.009-.596-1.069-1.646-4.024-2.802-1.192-.467-2.942-.889-4.963-1.384-12.265-2.985-37.785-9.203-45.927-49.765-2.521-12.556-.537-22.237 5.895-28.769 13.516-13.742 41.554-8.761 42.745-8.543l.094.025c26.162 7.817 42.977 21.244 48.621 38.825 3.106 9.675 6.058 23.112 8.661 34.966 2.248 10.228 4.188 19.058 5.346 21.168.527.96.87 2.339 1.302 4.093 1.787 7.248 5.114 20.727 28.868 27.379 17.493 4.896 31.794 17.412 42.505 37.196 13.229 24.439 20.57 59.596 21.82 104.5.006.265.659 26.533 18.179 96.521 10.046 40.136 8.295 66.709 6.888 88.057-1.083 16.395-2.013 30.557 2.779 45.952 12.736 40.952 14.981 71.966 16.958 99.334 1.002 13.876 1.951 26.985 4.101 40.603 7.643 48.409 33.331 90.265 38.407 98.166 5.443 8.475 10.215 28.699 12.773 54.089 2.409 23.99 2.072 45.29-.872 54.28-3.192 9.74-10.998 25.57-23.348 40.75-7.921 9.71-16.773 18.02-26.257 24.66zm-166.343-67.9c23.739 28.97 46.972 50.81 69.048 64.92 26.324 16.83 50.009 21.82 70.39 14.84 19.189-6.57 37.095-19.6 51.79-37.67 12.195-15 19.895-30.59 23.04-40.19 6.121-18.69-.2-88.93-11.711-106.853-5.104-7.95-30.972-50.083-38.666-98.843-2.158-13.688-3.11-26.831-4.12-40.748-2.069-28.606-4.209-58.185-16.886-98.936-4.883-15.712-3.947-30.023-2.854-46.591 1.397-21.224 3.137-47.643-6.838-87.511-17.584-70.248-18.224-96.656-18.232-96.913-1.237-44.609-8.51-79.502-21.608-103.693-10.474-19.348-24.412-31.572-41.431-36.336-24.748-6.924-28.236-21.059-30.109-28.656-.385-1.558-.717-2.903-1.133-3.664-1.286-2.332-3.155-10.852-5.526-21.643-2.466-11.231-5.538-25.207-8.617-34.804-5.452-16.989-21.842-30.008-47.395-37.656-1.279-.226-28.507-4.77-41.121 8.056-5.992 6.092-7.816 15.24-5.415 27.18 3.422 17.046 10.375 29.793 20.673 37.886 8.609 6.77 17.832 9.019 23.938 10.503 2.088.511 3.887.946 5.19 1.453 3.448 1.344 5.131 2.789 5.151 4.429.025 1.983-2.417 3.063-2.697 3.176l-.119.049-.129.014c-17.101 1.89-85.388-40.248-89.428-42.756-2.173-.7-40.407-12.661-98.088-8.119-53.354 4.197-108.927 55.61-119.53 65.872a1.939 1.939 0 01-2.186.368 1.951 1.951 0 01-1.127-1.917c1.687-23.559-13.765-75.123-13.919-75.639l-.046-.155.012-.16c1.789-27.97-1.828-50.632-10.749-67.358-.249-.463-.125-1.048.321-1.339a1.042 1.042 0 011.376.165c9.617 10.819 17.946 17.633 18.028 17.7.21.171 21.504 17.238 39.082 13.043 14.879-3.553 23.77-27.359 26.138-34.575a1.873 1.873 0 013.444-.28c16.196 31.116 35.424 30.603 52.097 25.995 12.929-3.57 18.591-25.227 20.019-31.778a1.101 1.101 0 011.184-.87c.569.051.994.501 1.012 1.07.776 23.537 11.365 37.662 20.115 45.364 10.033 8.833 23.28 14.169 35.436 14.281 11.921.111 22.618-7.981 29.493-14.789 8.655-8.566 14.017-17.663 15.366-21.391.201-.563.467-1.24.768-2.026 2.104-5.467 6.472-16.844 6.591-29.525.142-15.534-6.055-28.437-18.408-38.358-26.979-21.656-40.815-17.138-51.929-13.509-1.763.577-3.426 1.118-5.099 1.556-9.624 2.517-22.05 17.786-26.948 24.234a2.073 2.073 0 01-2.191.766 2.099 2.099 0 01-1.556-1.728c-.607-4.109-2.64-12.943-8.885-31.688-5.099-15.298-12.734-25.491-22.683-30.298-10.545-5.096-21.271-3.067-28.422-.469-12.332 4.482-20.734 18.678-23.776 24.574a2.021 2.021 0 01-3.571.05c-4.448-8.161-20.747-20.822-34.311-24.309-9.133-2.347-28.554 5.286-37.389 11.361l-.176.124c-4.793 3.356-11.708 10.502-16.968 20.685-4.133 7.995-8.541 20.571-6.091 35.072 1.386 8.187 4.167 16.152 8.28 23.668a1.29 1.29 0 01-.353 1.659 1.294 1.294 0 01-1.69-.09c-8.42-8.051-18.942-13.074-31.268-14.922-35.204-5.279-65.596 18.446-65.899 18.685l-.048.041-.054.031c-.101.064-10.418 6.256-16.992 22.598-3.873 9.613-5.712 20.806-5.471 33.269.303 15.617 3.89 33.282 10.67 52.496 10.141 28.747 24.921 52.542 43.93 70.725 18.755 17.938 34.922 23.866 39.432 25.256 5.762 1.773 11.032 5.039 15.239 9.437l5.508 5.75c.509.53.659 1.318.379 2.005-5.729 14-7.2 29.267-7.256 29.909 0 .187.527 16.381 8.924 40.056 7.292 20.567 22.264 51.024 52.203 79.328 25.186 23.811 54.508 38.04 87.156 42.278 30.648 3.983 52.684-2.435 56.789-3.759 1.965-.635 4.491-1.504 7.421-2.51 12.045-4.15 32.207-11.09 52.504-15.03 24.604-4.776 43.15-3.912 55.132 2.573 30.97 16.77 57.322 77.12 68.765 157.497 7.274 51.095 3.709 60.139-5.813 84.311-5.35 13.582-12.68 32.177-21.027 66.013-10.898 44.162-12.948 80.884-6.267 112.263 5.652 26.56 17.788 50.53 38.187 75.42z"/><path d="M338.639 542.478c-7.51 5.259-14.717 6.256-22.909 7.396-3.672.509-7.47 1.036-11.686 1.974-6.482 1.438-14.894-1.352-22.51-7.474-12.955-10.406-20.68-27.499-20.663-45.722.006-7.188 2.947-14.356 8.74-21.305 5.03-6.042 12.3-11.901 21.006-16.945 10.722-6.206 23.045-10.938 34.696-13.317 11.883-2.423 21.44-2.041 26.908 1.093 4.667 2.671 7.351 6.011 8.22 10.206.988 4.763-.348 10.654-4.087 18.006-5.201 10.238-3.889 14.78-2.079 21.072.762 2.65 1.63 5.649 2.051 9.423 1.463 13.082-3.028 23.315-14.576 33.186a42.984 42.984 0 01-3.111 2.407zm-54.311-75.983c-10.135 7.096-21.682 18.234-21.694 32.155-.021 17.693 7.461 34.27 20.003 44.343 7.199 5.784 15.059 8.448 21.02 7.126 4.288-.954 8.118-1.484 11.828-1.998 9.414-1.304 16.848-2.342 25.116-9.405 11.202-9.574 15.379-19.039 13.966-31.644-.404-3.621-1.213-6.418-1.994-9.125-1.855-6.425-3.318-11.499 2.2-22.36 6.596-12.98 5.567-20.718-3.437-25.875-10.557-6.043-37.96-.449-59.841 12.221a98.738 98.738 0 00-7.167 4.562z"/><path d="M355.013 547.714c-4.765 3.337-11.009 6.47-19.365 9.304-22.044 7.475-32.394 5.89-61.819-4.383-13.277-4.637-21.633-12.242-25.54-23.259-3.593-10.123-3.143-22.142-2.755-32.748.86-23.277 22.607-38.076 52.7-58.551l.745-.508c23.649-16.096 53.586-22.322 91.534-19.034.765-.024 10.286-.266 39.322-.899 12.374-.269 20.886 2.665 25.29 8.718 4.559 6.263 4.668 15.365.336 27.832-2.548 7.342-6.276 8.582-17.336 12.27-5.523 1.839-13.092 4.364-23.462 8.593-25.543 10.425-29.586 19.014-34.707 29.888-1.067 2.263-2.168 4.605-3.519 7.095-1.799 3.322-2.999 6.778-4.266 10.434-3.001 8.635-6.071 17.486-17.158 25.248zm-69.154-99c-9.349 6.547-17.453 12.657-23.738 18.836-9.86 9.701-14.429 18.686-14.814 29.138-.389 10.447-.824 22.29 2.654 32.092 3.77 10.622 11.541 17.667 24.457 22.176 28.969 10.115 39.13 11.687 60.667 4.379 26.984-9.149 31.272-21.51 35.416-33.464 1.235-3.564 2.511-7.248 4.381-10.696 1.327-2.445 2.416-4.764 3.47-7.005 5.285-11.224 9.462-20.087 35.641-30.77 10.427-4.255 18.022-6.784 23.571-8.635 11.004-3.669 13.962-4.654 16.228-11.175 4.129-11.876 4.098-20.451-.097-26.214-4.043-5.558-12.057-8.245-23.819-7.99-30.184.654-39.273.899-39.362.9l-.101-.006c-37.547-3.257-67.129 2.872-90.436 18.735l-.744.508c-4.675 3.19-9.152 6.235-13.374 9.191z"/><path d="M563.322 527.446c-5.201 3.643-11.372 6.821-18.5 10.49l-2.279 1.174c-15.303 7.898-37.026 3.763-60.028-.619-12.777-2.432-25.991-4.953-37.906-5.186-19.872-.385-29.911 10.05-42.622 23.262-7.886 8.201-16.833 17.497-29.727 25.861-33.816 21.92-52.946 29.957-94.249 14.919-18.258-6.651-33.968-23.552-46.703-50.239-11.746-24.625-18.049-51.864-20.759-65.907-3.376-17.494 1.666-34.106 15.875-52.285 11.65-14.906 29.239-30.759 58.824-53.018 22.313-16.787 49.735-25.813 81.511-26.834 28.991-.934 55.961 4.844 73.727 9.271 7.703 1.916 10.791 2.481 14.701 3.182 6.546 1.183 15.517 2.806 53.883 12.502 50.618 12.793 60.839 39.745 67.6 57.576 1.367 3.604 2.547 6.723 3.894 9.268 3.046 5.765 4.797 9.737 5.321 14.243.503 4.306-.074 9.216-1.02 17.353a712.234 712.234 0 00-1.735 16.048c-1.408 14.753-5.08 24.654-11.887 32.113-2.325 2.541-4.967 4.758-7.921 6.826zM417.93 539.479c7.231-5.064 15.423-8.162 26.717-7.938 12.062.234 25.351 2.765 38.203 5.214 22.691 4.323 44.126 8.403 58.883.783l2.28-1.173c22.217-11.439 34.458-17.74 37.352-48.027a715.007 715.007 0 011.74-16.079c2.179-18.684 1.342-20.265-4.104-30.564-1.403-2.645-2.6-5.808-3.986-9.468-6.633-17.49-16.653-43.919-66.375-56.489-38.31-9.686-47.239-11.297-53.763-12.48-3.941-.715-7.054-1.276-14.815-3.207-17.666-4.401-44.471-10.141-73.241-9.217-31.403 1.009-58.495 9.922-80.504 26.482-29.453 22.16-46.944 37.916-58.493 52.689-13.869 17.747-18.803 33.91-15.531 50.861 2.693 13.958 8.956 41.031 20.62 65.478 12.526 26.252 27.902 42.854 45.71 49.336 19.842 7.224 34.96 9.173 49.02 6.319 13.604-2.763 26.311-9.813 43.658-21.059 12.724-8.252 21.595-17.468 29.417-25.602 5.887-6.123 11.225-11.667 17.212-15.859z"/><path d="M745.131 1162.96c-1.871 1.31-3.736 2.44-5.59 3.37-.589.29-1.206.61-1.847.94-9.689 4.94-25.909 13.21-48.526 10.39-27.218-3.4-56.455-22.11-86.898-55.59-16.938-18.63-30.516-40.17-40.36-64.02-8.586-20.8-14.183-42.9-16.639-65.681-4.773-44.32 3.55-79.329 13.915-94.359 3.179-4.614 5.895-8.474 8.291-11.883 14.06-19.985 15.523-22.075 22.496-50.719 1.169-4.805 2.599-10.147 4.113-15.803 9.306-34.742 22.05-82.316 6.961-121.184-8.83-22.743-25.857-51.36-45.555-76.556-21.659-27.7-43.15-47.163-60.523-54.794-17.192-7.55-28.991-9.366-38.262-5.871-8.774 3.306-15.241 11.26-23.424 21.33l-1.576 1.941c-17.612 21.614-26.915 27.138-52.361 31.119-12.471 1.949-38.423 6.008-67.75-.853-36.122-8.449-65.664-30.643-87.811-65.968-24.433-38.977-34.366-66.823-32.208-90.303 2.015-21.934 14.164-38.31 29.545-59.047 14.435-19.459 34.809-44.107 64.484-62.104 15.768-9.559 33.102-16.602 51.533-20.925 20.999-4.923 44.153-6.504 68.825-4.689 22.622 1.664 41.934 11.599 60.61 21.21 15.299 7.872 29.747 15.309 45.917 18.612 2.998.614 6.24 1.251 9.673 1.934 18.825 3.714 44.604 8.809 67.259 16.915 27.046 9.683 43.879 21.416 51.467 35.871 16.785 31.978 34.699 87.404 24.751 169.884-4.743 39.299-5.093 84.251-.995 126.579 4.317 44.598 13.431 82.861 25.663 107.734 25.651 52.182 84.286 197.91 89.345 219.48 4.824 20.57 8.905 61.57 4.321 78.97-3.802 14.38-21.292 41.78-38.844 54.07zM449.368 563.134c2.113-1.479 4.325-2.689 6.711-3.592 9.738-3.669 21.951-1.845 39.599 5.912 17.636 7.751 39.372 27.395 61.206 55.325 19.794 25.323 36.926 54.11 45.814 77.005 15.3 39.406 2.465 87.306-6.906 122.28-1.511 5.641-2.94 10.974-4.106 15.764-7.047 28.973-8.535 31.088-22.768 51.319-2.392 3.405-5.112 7.261-8.281 11.868-10.179 14.762-18.336 49.295-13.615 93.166 2.436 22.619 7.993 44.549 16.513 65.199 9.764 23.65 23.233 45.02 40.036 63.5 30.152 33.17 59.02 51.68 85.807 55.03 22.079 2.76 37.991-5.36 47.505-10.2.648-.33 1.266-.65 1.86-.95 8.174-4.11 17.976-13.36 26.898-25.38 8.091-10.9 14.454-22.75 16.613-30.93 4.447-16.89.341-58.2-4.33-78.12-5.045-21.5-63.587-166.98-89.213-219.097-12.501-25.426-21.433-62.895-25.835-108.346-4.11-42.445-3.756-87.538 1.001-126.958 9.896-82.028-7.898-137.095-24.563-168.852-16.791-31.988-79.834-44.435-117.506-51.876-3.438-.679-6.684-1.321-9.686-1.931-16.406-3.353-31.638-11.189-46.369-18.773-18.516-9.53-37.667-19.384-59.936-21.019-24.487-1.798-47.467-.236-68.288 4.646-18.247 4.277-35.411 11.249-51.023 20.714-29.407 17.836-49.637 42.314-63.98 61.646-30.292 40.841-48.574 65.491 2.742 147.358 21.888 34.917 51.063 56.842 86.715 65.185 28.992 6.777 54.709 2.758 67.075.827 25.178-3.939 33.804-9.066 51.26-30.487l1.576-1.941c6.202-7.631 11.427-14.057 17.474-18.292z"/><path d="M673.676 1093.83a23.134 23.134 0 01-5.955 3.02c-8.326 2.8-19.063 1.13-34.799-5.42-13.856-5.76-24.505-17.38-30.796-33.6-5.188-13.36-7.164-29.47-5.435-44.19 1.326-11.26.132-19.334-.917-26.456-1.373-9.316-2.46-16.681 3.899-25.529 2.295-3.199 10.125-5.608 20.34-.974 1.353.618 2.723 1.201 4.056 1.77 8.833 3.768 17.965 7.666 31.368 23.476 5.061 5.973 17.812 21.863 26.84 40.333 9.511 19.48 11.669 35.2 6.41 46.74-4.673 10.25-9.461 16.95-15.011 20.83zm-73.292-131.655l.719.513c-5.94 8.271-4.952 14.972-3.585 24.238 1.011 6.871 2.279 15.424.923 26.924-1.7 14.44.241 30.24 5.328 43.34 6.116 15.76 16.431 27.03 29.831 32.61 29.307 12.19 41.799 8.09 53.469-17.53 5.028-11.03 2.879-26.25-6.391-45.22-8.941-18.31-21.581-34.058-26.599-39.978-13.13-15.489-22.072-19.305-30.712-22.994-1.336-.574-2.723-1.16-4.094-1.785-9.529-4.326-16.539-1.882-18.17.395l-.719-.513z"/><path d="M702.591 1154.49c-.608.43-1.213.79-1.81 1.11-8.068 4.26-28.829 2.48-46.283-3.98-2.408-.89-4.863-1.69-7.239-2.47-13.879-4.54-28.233-9.23-38.108-33.47-10.272-25.21-27.435-70.44-27.028-90.16.397-19.18.756-39.335.666-56.832-.072-13.654 4.791-31.747 15.632-39.338l.157-.11c6.658-4.579 14.83-5.027 24.288-1.336 12.101 4.719 35.515 16.114 56.353 39.399 22.02 24.608 34.318 54.887 36.539 89.987 4.632 73.1-4.737 91.3-13.167 97.2zM599.44 930.796c-10.32 7.226-14.947 24.669-14.878 37.875.094 17.522-.262 37.689-.665 56.879-.404 19.4 16.677 64.37 26.895 89.45 9.565 23.49 22.903 27.85 37.017 32.47 2.39.78 4.865 1.59 7.304 2.49 16.758 6.2 37.289 8.06 44.841 4.07 4.822-2.55 19.508-10.32 14.043-96.64-2.194-34.7-14.336-64.609-36.092-88.918-20.589-23.009-43.721-34.269-55.678-38.93-8.883-3.463-16.499-3.08-22.642 1.145a1.83 1.83 0 01-.145.109z"/><path d="M719.65 1167.16c-2.522 1.77-5.325 3.33-8.564 4.55-9.601 3.6-21.64 3.8-37.888.61-19.115-3.75-41.694-19.33-61.954-42.75-19.73-22.8-33.685-49.29-37.33-70.84-2.487-14.71-5.633-28.68-8.414-41.01-5.198-23.071-9.3-41.295-6.158-51.053 7.493-23.264 11.946-39.353 13.233-47.806 1.365-8.943 16.101-32.835 29.972-39.419 4.794-2.277 9.079-2.335 12.726-.182 32.189 19.004 37.244 21.736 53.355 27.011 9.699 3.176 17.931 24.689 26.645 47.464 6.14 16.044 12.484 32.636 19.61 43.615 7.57 11.67 19.82 34.09 29.42 58.86 7.263 18.74 15.013 44.26 10.687 59.38l-.173.61c-7.097 24.78-7.097 24.78-17.852 34.91-.669.63-1.382 1.3-2.139 2.02-1.52 1.44-2.998 2.94-4.427 4.39-3.289 3.35-6.643 6.77-10.749 9.64zM599.404 883.346c-11.987 8.394-23.926 28.195-25.082 35.787-1.303 8.547-5.776 24.726-13.302 48.082-2.995 9.295 1.063 27.309 6.201 50.115 2.782 12.35 5.932 26.34 8.431 41.1 3.594 21.25 17.398 47.41 36.925 69.98 20.006 23.12 42.223 38.49 60.961 42.17 34.827 6.84 44.917-3.43 55.598-14.3 1.439-1.46 2.927-2.97 4.471-4.44.758-.71 1.471-1.38 2.144-2.02 10.402-9.79 10.402-9.79 17.368-34.11l.173-.61c2.317-8.08 2.345-24.74-10.632-58.25-9.549-24.65-21.723-46.94-29.249-58.539-7.225-11.138-13.61-27.819-19.78-43.945-8.557-22.373-16.642-43.498-25.54-46.411-16.289-5.331-21.369-8.079-53.702-27.169-3.112-1.836-6.84-1.752-11.074.257-1.301.614-2.606 1.389-3.911 2.303zm-442.47-521.398c-.599.42-1.23.813-1.901 1.2-3.641 2.085-10.419 2.132-17.694.124-8.486-2.343-16.435-7.131-22.38-13.476-14.351-15.326-24.737-36.563-25.255-51.657-.43-12.386.022-15.221.836-20.366.25-1.58.533-3.371.831-5.732.38-2.986 1.343-8.817 3.494-14.345 2.532-6.507 5.954-10.723 10.178-12.539 5.243-2.259 11.565-.733 18.781 4.541 22.955 16.769 35.849 29.322 38.24 47.624 1.077 8.23-.105 14.152-1.245 19.879-1.262 6.323-2.455 12.301-.105 20.589 4.071 14.384 1.863 20.207-3.78 24.158zm-53.212-114.032c-7.589 5.314-10.01 19.758-10.592 24.354a175.336 175.336 0 01-.84 5.779c-.795 5.042-1.235 7.814-.813 20.033.506 14.7 10.699 35.464 24.784 50.498 13.138 14.029 32.007 16.412 37.903 13.03 3.637-2.082 5.477-4.139 6.345-7.1 1.082-3.685.607-8.841-1.485-16.237-2.467-8.703-1.232-14.877.072-21.417 1.115-5.584 2.265-11.366 1.229-19.3-2.307-17.667-14.973-29.944-37.531-46.424-6.676-4.877-12.411-6.336-17.037-4.343-.729.303-1.399.681-2.035 1.127z"/><path d="M181.498 375.203c-6.864 4.807-17.894 11.83-33.348 6.366-16.835-5.953-30.995-22.706-37.04-29.867-1.956-2.319-12.136-14.731-20.188-31.539-9.498-19.832-12.147-37.434-7.865-52.316.585-2.03 1.143-4.13 1.734-6.35 3.92-14.726 8.36-31.415 22.836-38.707 11.688-5.885 27.929-4.557 49.659 4.059 12.667 5.022 21.58 12.175 26.489 21.251 4.438 8.217 5.323 17.765 2.548 27.612-4.899 17.419-5.243 38.812-.928 57.233 2.222 9.47 3.335 18.167 3.224 25.145-.132 8.136-1.913 13.46-5.29 15.824l-.868.608c-.308.223-.628.447-.963.681zm-76.537-148.767c-11.072 7.753-14.979 22.428-18.462 35.513-.598 2.231-1.156 4.339-1.745 6.385-4.16 14.451-1.551 31.631 7.756 51.062 7.964 16.622 18.012 28.877 19.945 31.164 5.951 7.046 19.895 23.549 36.282 29.337 15.344 5.425 26.211-2.246 32.709-6.824l.873-.611c5.495-3.848 6.032-19.202 1.357-39.116-4.385-18.698-4.031-40.423.945-58.118 2.647-9.397 1.811-18.488-2.407-26.291-4.702-8.703-13.309-15.578-25.579-20.449-21.232-8.417-37.002-9.765-48.212-4.116a27.606 27.606 0 00-3.462 2.064z"/><path d="M200.529 406.82c-2.114 1.479-4.721 2.55-7.964 3.098-19.566 3.304-36.58-3.152-53.55-20.32-11.645-11.787-28.204-30.73-40.959-54.047-17.325-31.682-22.164-61.427-14.381-88.41 6.103-21.155 17.105-35.939 32.708-43.944 23.399-12.003 47.952-4.181 48.19-4.098 15.782 5.616 27.996 15.032 35.327 27.231 8.775 14.599 10.776 33.036 5.943 54.79-6.476 29.154-.992 49.817 3.013 64.898 2.425 9.148 4.343 16.374 3.107 22.735-.717 3.7-1.134 7.653-1.534 11.47-1.102 10.476-2.228 21.224-9.9 26.597zM110.86 208.587c-11.834 8.286-20.393 21.388-25.485 39.045-7.651 26.517-2.864 55.814 14.232 87.069 12.651 23.139 29.096 41.948 40.662 53.652 16.527 16.724 33.051 23.024 51.996 19.823 13.692-2.313 15.003-14.852 16.399-28.122.404-3.861.822-7.85 1.557-11.625 1.158-5.967-.713-13.018-3.08-21.944-4.047-15.259-9.594-36.161-3.024-65.735 11.762-52.97-20.099-72.841-40.136-79.977-.23-.081-24.043-7.667-46.79 4.004a53.441 53.441 0 00-6.331 3.81z"/></g></svg>