<svg width="177" height="44" fill="none" xmlns="http://www.w3.org/2000/svg"><path d="M42.637 28.097a36.143 36.143 0 01-4.515 2.763 48.077 48.077 0 01-4.39 1.99l2.422 6.273c.768 1.92 2.6 3.395 4.666 3.395h6.992c.222 0 .422-.351.546-.54.125-.19.141-.53.05-.736l-5.77-13.145zM9.614 26.858c1.141-.497 2.336-.913 3.493-1.314 2.012-.697 4.067-1.41 6.089-2.628l4.234-10.56a1.117 1.117 0 011.044-.703c.46 0 .87.276 1.038.703l1.087 2.704c1.508-1.996 3.488-4.078 7.44-6.381l-1.562-3.537A8.65 8.65 0 0024.57 0a8.653 8.653 0 00-7.911 5.153L6.505 28.156c.373-.156.752-.313 1.135-.47.639-.265 1.298-.535 1.974-.828zm22.949 6.408l.016.006-.016-.006zm-24.344.46a2.363 2.363 0 00-2.358 2.358A2.363 2.363 0 008.22 38.44a2.363 2.363 0 002.358-2.358 2.36 2.36 0 00-2.358-2.357z" fill="#009851"/><path d="M22.424 25.101c3.174-1.47 4.543-4.24 3.813-7.467-.92 1.308-1.855 2.617-3.304 3.963a19.198 19.198 0 01-4.45 3.093c-2.402 1.217-4.797 1.882-7.041 2.73.492-.07.99-.134 1.498-.2 3.38-.448 6.873-.908 9.484-2.119z" fill="#009851"/><path d="M50.045 7.976c-.638-.595-2.444-1.428-5.19-1.428-2.418 0-5.56.644-9.264 2.65-.135.07-.265.146-.4.222-.227.124-.443.254-.66.378-4.06 2.385-5.904 4.515-7.402 6.586-.065.087-.125.173-.19.26.574 1.811.585 3.558.017 5.1-.67 1.816-2.098 3.27-4.137 4.217-2.741 1.27-6.31 1.741-9.76 2.2-2.044.271-4.007.53-5.667.942a46.41 46.41 0 00-1.612.697c-.605.281-1.178.573-1.714.898-1.27.768-2.336 1.725-3.136 3.12a1.129 1.129 0 00-.076.162 6.137 6.137 0 00.795 7.31c.146.158 1.72 1.953 4.488 1.953 2.136 0 3.742-.595 5.23-1.238 3-1.304 6.245-4.1 12.258-6.7 2.503-1.082 5.44-1.98 8.533-3.153.373-.14.746-.286 1.124-.438 2.92-1.162 5.949-2.622 8.858-4.747.33-.244.66-.492.99-.752a30.853 30.853 0 003.417-3.163c7.403-7.97 4.715-13.94 3.498-15.076zM8.22 39.376a3.301 3.301 0 01-3.298-3.298 3.298 3.298 0 113.299 3.299z" fill="#009851"/><path d="M69.507 26.047h-7.42l-1.416 3.423h-3.79L64 13.486h3.656l7.149 15.984h-3.883l-1.416-3.423zm-1.168-2.806l-2.536-6.121-2.536 6.12h5.072zm18.871 6.235l-3.082-4.45h-3.402v4.45h-3.698V13.492h6.916c1.417 0 2.644.237 3.688.708 1.043.47 1.844 1.14 2.406 2.011.562.866.844 1.893.844 3.083 0 1.19-.287 2.211-.855 3.071-.573.86-1.379 1.52-2.433 1.974l3.585 5.137h-3.97zm-.935-12.253c-.58-.482-1.423-.72-2.537-.72h-3.011v5.57h3.011c1.109 0 1.958-.243 2.537-.73.578-.487.865-1.173.865-2.055.005-.892-.287-1.584-.865-2.065zm22.987-3.731l-6.916 15.984H98.69l-6.894-15.984h3.996l4.861 11.415 4.932-11.415h3.677zm2.233 0h3.699v15.984h-3.699V13.492zm11.182 3.011h-5.115v-3.011h13.929v3.011h-5.115V29.47h-3.699V16.503zm13.032 11.351c-1.271-1.266-1.909-3.066-1.909-5.413v-8.95h3.699v8.814c0 2.861 1.19 4.294 3.563 4.294 1.158 0 2.039-.346 2.65-1.038.611-.692.914-1.78.914-3.256v-8.813h3.655v8.949c0 2.347-.638 4.147-1.909 5.413-1.27 1.265-3.049 1.892-5.331 1.892-2.288.006-4.061-.627-5.332-1.892zm29.832 1.622l-.021-9.593-4.705 7.9h-1.665l-4.683-7.695v9.382h-3.471V13.492h3.06l5.981 9.933 5.888-9.934h3.039l.044 15.985h-3.467zm6.057-20.024h-1.152V9.15h2.655v.303h-1.157v2.985h-.346V9.452zM177 9.15v3.287h-.335V9.809l-1.293 2.212h-.162l-1.292-2.196v2.612h-.335V9.149h.286l1.428 2.434 1.411-2.434H177z" fill="#fff"/></svg>