<svg width="177" height="43" fill="none" xmlns="http://www.w3.org/2000/svg"><path d="M42.637 27.939a36.194 36.194 0 01-4.515 2.748 48.244 48.244 0 01-4.39 1.978l2.422 6.238c.768 1.909 2.6 3.377 4.666 3.377h6.992c.222 0 .422-.35.546-.538.125-.188.14-.527.049-.731l-5.77-13.072zM9.614 26.708c1.141-.495 2.336-.91 3.493-1.307 2.012-.694 4.067-1.403 6.09-2.613l4.233-10.502a1.117 1.117 0 011.044-.698c.46 0 .87.274 1.038.699l1.087 2.688c1.509-1.984 3.488-4.054 7.44-6.345l-1.562-3.516A8.653 8.653 0 0024.57 0a8.656 8.656 0 00-7.91 5.124L6.504 27.998c.373-.156.752-.312 1.136-.468.638-.263 1.297-.532 1.973-.822zm22.949 6.372l.017.005-.017-.006zm-24.343.456a2.357 2.357 0 00-2.358 2.345c0 1.29 1.06 2.344 2.357 2.344a2.357 2.357 0 002.358-2.344 2.353 2.353 0 00-2.358-2.345z" fill="#009851"/><path d="M22.424 24.96c3.175-1.462 4.543-4.216 3.813-7.425-.92 1.3-1.855 2.602-3.304 3.94a19.183 19.183 0 01-4.45 3.076c-2.401 1.21-4.797 1.872-7.041 2.716.492-.07.99-.135 1.498-.2 3.38-.445 6.873-.902 9.484-2.107z" fill="#009851"/><path d="M50.045 7.931c-.638-.591-2.444-1.42-5.19-1.42-2.418 0-5.56.64-9.264 2.635-.135.07-.265.145-.4.22-.227.124-.443.253-.66.377-4.06 2.371-5.904 4.49-7.402 6.55-.065.085-.125.171-.19.258.574 1.8.585 3.538.017 5.07-.67 1.807-2.098 3.253-4.137 4.194-2.741 1.264-6.31 1.732-9.76 2.188-2.044.27-4.007.527-5.667.936-.557.231-1.098.457-1.612.694-.605.28-1.178.57-1.714.892-1.27.764-2.336 1.716-3.136 3.103a1.117 1.117 0 00-.076.161 6.076 6.076 0 00.795 7.27C1.795 41.215 3.37 43 6.137 43c2.136 0 3.742-.592 5.23-1.231 3-1.296 6.245-4.076 12.258-6.663 2.503-1.075 5.44-1.967 8.533-3.134.373-.14.746-.285 1.124-.436 2.92-1.156 5.949-2.608 8.858-4.72.33-.243.66-.49.99-.748a30.782 30.782 0 003.417-3.146c7.403-7.926 4.715-13.862 3.498-14.99zM8.22 39.155c-1.817 0-3.298-1.468-3.298-3.28a3.292 3.292 0 013.298-3.28 3.289 3.289 0 013.299 3.28 3.295 3.295 0 01-3.299 3.28z" fill="#009851"/><path d="M69.507 25.901h-7.42l-1.416 3.404h-3.79L64 13.41h3.656l7.149 15.895h-3.883L69.507 25.9zm-1.168-2.79l-2.537-6.087-2.536 6.086h5.073zM87.21 29.31l-3.082-4.425h-3.401v4.425h-3.699V13.416h6.916c1.417 0 2.644.236 3.688.704 1.044.468 1.844 1.135 2.406 2 .563.86.844 1.882.844 3.065s-.287 2.2-.854 3.054c-.574.855-1.38 1.511-2.434 1.963l3.585 5.108H87.21zm-.935-12.184c-.579-.479-1.422-.715-2.536-.715h-3.012v5.538h3.012c1.108 0 1.957-.242 2.536-.726.578-.484.865-1.167.865-2.043.005-.887-.287-1.576-.865-2.054zm22.987-3.71l-6.916 15.894H98.69l-6.894-15.894h3.996l4.861 11.35 4.932-11.35h3.677zm2.233 0h3.699V29.31h-3.699V13.416zm11.182 2.994h-5.115v-2.994h13.929v2.995h-5.115v12.894h-3.699V16.41zm13.032 11.287c-1.271-1.258-1.909-3.049-1.909-5.382v-8.9h3.699v8.765c0 2.845 1.19 4.27 3.564 4.27 1.157 0 2.038-.345 2.649-1.033.611-.688.914-1.769.914-3.237v-8.764h3.655v8.899c0 2.333-.638 4.124-1.908 5.382-1.271 1.258-3.05 1.882-5.332 1.882-2.287.005-4.061-.624-5.332-1.882zm29.833 1.613l-.022-9.539-4.704 7.856h-1.666l-4.683-7.651v9.329h-3.471v-15.89h3.06l5.981 9.878 5.889-9.877h3.039l.043 15.894h-3.466zm6.056-19.911h-1.152v-.301h2.655v.301h-1.157v2.968h-.346V9.4zM177 9.098v3.27h-.335V9.753l-1.293 2.2h-.162l-1.292-2.184v2.597h-.335v-3.27h.286l1.428 2.42 1.411-2.42H177z" fill="#000"/></svg>