<svg width="74" height="69" fill="none" xmlns="http://www.w3.org/2000/svg"><g clip-path="url(#clip0)" fill="#fff"><path d="M36.872 5.75c-5.428 0-9.828 4.119-9.828 9.2 0 5.081 4.4 9.2 9.828 9.2 5.425-.006 9.822-4.121 9.828-9.2 0-5.081-4.4-9.2-9.828-9.2zm0 16.1c-4.07-.004-7.367-3.09-7.371-6.9 0-3.81 3.3-6.9 7.371-6.9 4.071 0 7.371 3.09 7.371 6.9 0 3.81-3.3 6.9-7.371 6.9z"/><path d="M72.888 32.26l-14.743-4.6a1.322 1.322 0 00-.67-.03l-10.038 2.208c2.937-5.787 5.406-11.63 5.406-14.888C52.843 6.693 45.693 0 36.872 0c-8.82 0-15.97 6.693-15.97 14.95 0 3.228 2.422 8.99 5.314 14.72l-8.702-2.036a1.27 1.27 0 00-.66.017l-15.97 4.6c-.516.148-.868.594-.868 1.099v34.5c0 .635.55 1.15 1.229 1.15.122 0 .244-.017.36-.05l15.644-4.506 19.326 4.522c.19.043.388.043.578 0l20.481-4.522L72.12 68.94c.645.197 1.338-.134 1.548-.738.04-.114.06-.233.06-.353v-34.5c0-.495-.339-.934-.84-1.09zm-49.53-17.31c.009-6.983 6.054-12.642 13.514-12.65 7.46.008 13.505 5.667 13.514 12.65 0 3.273-2.962 9.787-6.217 15.954-2.772 5.259-5.755 10.266-7.297 12.796-3.353-5.504-13.514-22.686-13.514-28.75zm47.913 51.306l-13.2-4.097a1.28 1.28 0 00-.669-.03l-20.517 4.538-19.372-4.532a1.279 1.279 0 00-.659.016l-14.38 4.142V34.199l14.775-4.255L27.61 32.37c3.809 7.205 7.885 13.707 8.204 14.214.345.547 1.099.728 1.683.405.178-.098.327-.238.433-.405.318-.504 4.343-6.929 8.131-14.08l11.638-2.56 13.572 4.235v32.077z"/></g><defs><clipPath id="clip0"><path fill="#fff" transform="translate(.016)" d="M0 0h73.712v69H0z"/></clipPath></defs></svg>