<svg width="125" height="100" fill="none" xmlns="http://www.w3.org/2000/svg"><path d="M74.177 12.62c-.424.424-.813.6-1.449.53-8.555-.884-17.11-1.732-25.628-2.616-.425-.035-.92-.247-1.202-.565a1138.841 1138.841 0 01-6.54-6.505c-1.555-1.52-2.863-1.555-4.383 0-3.076 3.076-6.116 6.151-9.227 9.191-.247.248-.707.495-1.06.46-7.848-.354-14.175 5.797-13.857 13.645.035.636-.177 1.025-.601 1.414A2306.09 2306.09 0 00.968 37.4c-.707.707-1.166 1.485-.883 2.439.212.672.671 1.343 1.166 1.873 7.035 7.07 14.07 14.07 21.104 21.104.247.248.565.389.954.672-3.04 2.474-4.772 5.338-4.136 9.12.637 3.782 3.005 6.08 6.681 7.14-.707 3.57.107 6.646 2.934 8.98 2.864 2.333 6.08 2.474 9.403 1.06 2.121 6.01 9.828 7.989 14.53 3.429.211.177.423.389.6.565 1.273 1.273 2.51 2.58 3.853 3.818 4.278 4.065 11.17 2.793 13.786-2.51.107-.212.213-.389.354-.636 2.298 2.369 4.984 3.394 8.166 2.793 3.181-.566 5.302-2.51 6.575-5.409 3.5 2.298 7.07 2.545 10.392.106 3.712-2.722 4.384-6.469 2.864-10.71.106-.071.177-.142.283-.177 5.974-2.121 7.918-9.969 2.792-14.706-.954-.884-1.838-1.838-2.828-2.792.248-.248.424-.46.637-.672a15098.87 15098.87 0 0123.684-23.649c1.414-1.414 1.449-2.828.035-4.207-11.312-11.311-22.659-22.623-33.97-33.935C89.2.353 88.528 0 87.821 0c-.707 0-1.414.353-2.12 1.096-3.89 3.888-7.707 7.706-11.525 11.524zm-50.302 5.585c4.454 0 7.953 3.535 7.953 7.954 0 4.418-3.534 7.989-7.953 7.989a7.996 7.996 0 01-8.024-8.025c.035-4.383 3.605-7.918 8.024-7.918zm2.333 56.277c-1.379-.637-2.015-1.768-2.086-3.111.036-1.096.354-1.91 1.025-2.58 1.273-1.273 2.546-2.546 3.854-3.783 1.449-1.379 3.676-1.343 5.02.035 1.378 1.414 1.413 3.535 0 5.02-1.273 1.308-2.546 2.616-3.89 3.853-1.13.99-2.474 1.202-3.923.566zm10.499 10.11c-1.131 1.06-2.51 1.272-3.924.636-1.379-.601-2.015-1.732-2.05-2.722 0-1.485.353-2.333 1.025-3.04 1.767-1.768 3.535-3.57 5.338-5.303 1.449-1.414 3.605-1.378 5.02 0 1.378 1.379 1.413 3.57.035 5.02a261.606 261.606 0 01-5.444 5.408zm13.715 3.57a12.298 12.298 0 01-1.661 1.661c-1.131.92-2.44 1.06-3.747.46-1.308-.601-1.98-1.732-2.05-3.288-.283-1.767 2.934-4.843 4.772-4.63 1.45.14 2.545.742 3.181 2.05.566 1.308.425 2.616-.495 3.747zm49.631-14.07c-.424 1.38-1.414 2.157-2.828 2.404-1.237.213-2.297-.212-3.181-1.095a323.384 323.384 0 00-4.95-4.914c-.848-.848-2.05-.954-3.04-.424-.954.53-1.52 1.661-1.201 2.722.141.53.46 1.06.848 1.45 2.687 2.721 5.409 5.443 8.13 8.165 1.096 1.096 1.45 2.404.884 3.888-.53 1.379-1.555 2.121-3.004 2.263-1.202.106-2.192-.354-3.005-1.202a2494.609 2494.609 0 00-9.65-9.615c-.212-.212-.39-.424-.601-.601-1.06-.955-2.58-.92-3.535.07-.955.99-.99 2.51 0 3.535 1.272 1.344 2.615 2.616 3.924 3.924.53.53 1.06 1.025 1.555 1.556 1.45 1.52 1.484 3.747.035 5.125-1.414 1.379-3.605 1.344-5.09-.106-2.475-2.439-4.914-4.913-7.388-7.352-1.414-1.414-2.899-1.591-4.03-.46-1.131 1.131-.955 2.651.424 4.03.495.495.99.954 1.45 1.45a3.567 3.567 0 01-.036 4.913c-1.308 1.343-3.5 1.484-4.878.212-1.59-1.485-3.146-3.076-4.666-4.63-.142-.142-.212-.496-.142-.673 1.838-4.949-1.767-10.605-7.388-11.418-.141-.035-.247-.07-.424-.105.142-4.596-3.146-8.873-8.448-9.191 0-.46.035-.92 0-1.38-.319-5.407-5.126-8.978-10.605-7.74-.707.176-1.379.494-2.086.671-.283.07-.707.035-.848-.141-3.924-3.889-7.848-7.813-11.772-11.736-.07-.071-.07-.142-.318-.39.354-.247.742-.494 1.06-.777a601.567 601.567 0 006.717-6.716c.424-.425.813-.601 1.414-.566 7.883.248 13.998-5.974 13.68-13.857 0-.318.142-.742.354-.954a945.248 945.248 0 018.413-8.414c.212-.212.636-.389.954-.389 5.48.53 10.959 1.096 16.438 1.627.106 0 .177.035.389.106-.212.106-.283.212-.39.247-6.468 2.05-12.053 5.691-17.426 9.721-2.086 1.59-4.242 3.146-6.257 4.843-1.096.92-2.157 1.909-2.97 3.075-2.227 3.147-1.626 6.788 1.626 8.838 4.136 2.616 8.484 3.005 12.868.424 1.909-1.131 3.888-2.156 5.868-3.11 1.626-.778 3.429-.849 5.231-.743 2.404.177 4.808.318 7.176.53.39.036.849.248 1.132.53 9.544 9.474 19.053 18.983 28.562 28.492 1.061 1.131 1.485 2.369 1.025 3.889zm10.464-28.845A5988.083 5988.083 0 0095.741 60.06c-.248-.354-.495-.742-.814-1.096-7.21-7.211-14.458-14.422-21.669-21.67-.742-.742-1.52-1.095-2.545-1.166a229.765 229.765 0 01-8.52-.565c-3.357-.319-6.503.389-9.402 2.05a363.081 363.081 0 00-5.09 2.934c-1.803 1.06-5.621.566-7.07-.954-.425-.425-.425-.92-.106-1.344.46-.6.919-1.237 1.52-1.661 4.206-3.146 8.483-6.292 12.725-9.403.53-.389 1.167-.601 1.768-.849 5.762-2.333 11.524-4.63 17.286-6.999.954-.389 1.838-1.096 2.616-1.803 1.13-1.025 2.156-2.191 3.287-3.323 10.322 10.5 20.574 20.786 30.79 31.037z" fill="#DCDCDC"/></svg>