<svg width="13" height="13" fill="none" xmlns="http://www.w3.org/2000/svg"><path d="M6.374 3.969a2.39 2.39 0 00-2.39 2.381 2.39 2.39 0 002.39 2.381 2.39 2.39 0 002.39-2.381 2.39 2.39 0 00-2.39-2.381zm6.135 1.997l-2.358-1.174.834-2.49a.43.43 0 00-.545-.543l-2.5.83L6.76.24a.432.432 0 00-.772 0L4.81 2.586l-2.502-.83a.43.43 0 00-.545.542l.834 2.49L.239 5.967a.429.429 0 000 .768l2.358 1.174-.834 2.493a.43.43 0 00.545.543l2.5-.831 1.178 2.349a.431.431 0 00.771 0l1.178-2.35 2.5.832a.43.43 0 00.545-.543l-.834-2.49 2.358-1.174a.43.43 0 00.005-.771zM8.627 8.595a3.199 3.199 0 01-4.506 0 3.17 3.17 0 010-4.49 3.199 3.199 0 014.506 0 3.17 3.17 0 010 4.49z" fill="#C4C4C4"/></svg>