<svg width="30" height="25" viewBox="0 0 30 25" fill="none" xmlns="http://www.w3.org/2000/svg">
<path d="M24.5081 16.1494C23.7058 16.7275 22.8432 17.2555 21.9119 17.7373C21.0667 18.1744 20.2175 18.5506 19.3884 18.8818L20.7822 22.3864C21.2249 23.4885 22.2782 24.2387 23.4661 24.2387H27.4836C27.6123 24.2387 27.7268 24.139 27.7965 24.0304C27.8671 23.9226 27.8775 23.7751 27.8252 23.6576L24.5081 16.1494Z" fill="url(#paint0_linear)"/>
<path d="M5.52584 15.4388C6.18118 15.1516 6.86923 14.914 7.53422 14.6832C8.68964 14.2834 9.87268 13.8731 11.0337 13.1719L13.4685 7.10227C13.5677 6.85611 13.8023 6.69764 14.0675 6.69764C14.3319 6.69764 14.5676 6.85611 14.6657 7.10227L15.2897 8.65642C16.1579 7.50877 17.2943 6.31232 19.5668 4.98904L18.6672 2.9568C17.8713 1.16025 16.0874 0 14.1227 0C12.1554 0 10.3704 1.16293 9.57665 2.96243L3.73975 16.184C3.95345 16.0944 4.17199 16.0046 4.39321 15.9139C4.75949 15.763 5.13837 15.6075 5.52584 15.4388Z" fill="url(#paint1_linear)"/>
<path d="M18.718 19.1225L18.7274 19.1248L18.7189 19.1216L18.718 19.1225Z" fill="url(#paint2_linear)"/>
<path d="M12.8909 14.4279C14.7158 13.5828 15.5023 11.9903 15.0824 10.1353C14.5533 10.889 14.0146 11.6387 13.1823 12.4142C12.6586 12.9035 12.1261 13.3044 11.5928 13.642C11.2702 13.8463 10.9468 14.0284 10.6245 14.1914C9.2444 14.8916 7.8683 15.2737 6.57666 15.7617C6.85955 15.7225 7.14646 15.6844 7.43632 15.6461C9.37954 15.3892 11.3887 15.1235 12.8909 14.4279Z" fill="url(#paint3_linear)"/>
<path d="M4.7236 19.3853C3.97629 19.3853 3.36841 19.9931 3.36841 20.7404C3.36841 21.4878 3.97629 22.0956 4.7236 22.0956C5.47091 22.0956 6.07878 21.4878 6.07878 20.7404C6.07878 19.9931 5.47091 19.3853 4.7236 19.3853Z" fill="url(#paint4_linear)"/>
<path d="M28.7681 4.58321C28.4026 4.24079 27.3627 3.7627 25.7828 3.7627C24.3947 3.7627 22.5885 4.13193 20.4573 5.2844C20.3811 5.32542 20.3047 5.36752 20.2272 5.41043C20.0974 5.48282 19.9725 5.55549 19.8494 5.62789C17.5139 6.9989 16.4558 8.22296 15.5934 9.41271C15.557 9.46285 15.5219 9.51299 15.4859 9.56287C15.8168 10.6054 15.823 11.6077 15.4964 12.4934C15.1119 13.5365 14.2892 14.3747 13.1174 14.9174C11.5408 15.6475 9.49028 15.9186 7.5071 16.1811C6.3313 16.3367 5.20323 16.4866 4.25079 16.7231C3.93036 16.8561 3.62092 16.9874 3.32489 17.1245C2.97658 17.2856 2.64757 17.4535 2.3384 17.6414C1.60959 18.0841 0.996889 18.632 0.536221 19.4361C0.519865 19.4637 0.505653 19.4962 0.491442 19.5297C-0.286169 20.8425 -0.145931 22.5608 0.947551 23.7333C1.03067 23.8221 1.93699 24.8553 3.52734 24.8553C4.75409 24.8553 5.67918 24.515 6.5316 24.1444C8.25629 23.3952 10.1217 21.7888 13.5773 20.2928C15.0169 19.6699 16.7057 19.1546 18.4832 18.481C18.698 18.3989 18.9133 18.3158 19.13 18.2292C20.8091 17.5594 22.5493 16.7228 24.2209 15.4987C24.4118 15.3593 24.6006 15.2153 24.7886 15.0665C25.4603 14.5331 26.1175 13.932 26.753 13.249C31.0111 8.66942 29.4655 5.23774 28.7681 4.58321ZM4.72352 22.635C3.67884 22.635 2.82883 21.785 2.82883 20.7404C2.82883 19.6957 3.67884 18.8457 4.72352 18.8457C5.7682 18.8457 6.61821 19.6957 6.61821 20.7404C6.61821 21.785 5.7682 22.635 4.72352 22.635Z" fill="url(#paint5_linear)"/>
<defs>
<linearGradient id="paint0_linear" x1="6.49219" y1="35.9237" x2="35.7484" y2="11.2002" gradientUnits="userSpaceOnUse">
<stop stop-color="#06A752"/>
<stop offset="0.252" stop-color="#009950"/>
<stop offset="0.7232" stop-color="#00864C"/>
<stop offset="1" stop-color="#00804B"/>
</linearGradient>
<linearGradient id="paint1_linear" x1="-5.76982" y1="21.323" x2="23.4214" y2="-3.34562" gradientUnits="userSpaceOnUse">
<stop stop-color="#06A752"/>
<stop offset="0.252" stop-color="#009950"/>
<stop offset="0.7232" stop-color="#00864C"/>
<stop offset="1" stop-color="#00804B"/>
</linearGradient>
<linearGradient id="paint2_linear" x1="1.98752" y1="33.2637" x2="33.7623" y2="6.4076" gradientUnits="userSpaceOnUse">
<stop stop-color="#06A752"/>
<stop offset="0.252" stop-color="#009950"/>
<stop offset="0.7232" stop-color="#00864C"/>
<stop offset="1" stop-color="#00804B"/>
</linearGradient>
<linearGradient id="paint3_linear" x1="-2.32478" y1="25.3991" x2="26.8665" y2="0.730387" gradientUnits="userSpaceOnUse">
<stop stop-color="#06A752"/>
<stop offset="0.252" stop-color="#009950"/>
<stop offset="0.7232" stop-color="#00864C"/>
<stop offset="1" stop-color="#00804B"/>
</linearGradient>
<linearGradient id="paint4_linear" x1="-1.68505" y1="26.1562" x2="27.5063" y2="1.48748" gradientUnits="userSpaceOnUse">
<stop stop-color="#06A752"/>
<stop offset="0.252" stop-color="#009950"/>
<stop offset="0.7232" stop-color="#00864C"/>
<stop offset="1" stop-color="#00804B"/>
</linearGradient>
<linearGradient id="paint5_linear" x1="-0.186603" y1="27.9294" x2="29.0046" y2="3.26073" gradientUnits="userSpaceOnUse">
<stop stop-color="#06A752"/>
<stop offset="0.252" stop-color="#009950"/>
<stop offset="0.7232" stop-color="#00864C"/>
<stop offset="1" stop-color="#00804B"/>
</linearGradient>
</defs>
</svg>
