<svg width="335" height="268" viewBox="0 0 335 268" fill="none" xmlns="http://www.w3.org/2000/svg">
<path d="M35.2021 222.788H14.5184L10.5655 232.333H0L19.8616 187.785H30.0523L49.9744 232.333H39.1551L35.2021 222.788ZM31.9623 214.958L24.8905 197.91L17.8186 214.958H31.9623Z" fill="black"/>
<path d="M84.5841 232.333L75.9891 219.924H75.4814H66.4995V232.333H56.1879V187.785H75.4814C79.4344 187.785 82.8554 188.437 85.7688 189.754C88.6701 191.071 90.9186 192.932 92.4901 195.348C94.0616 197.765 94.8474 200.629 94.8474 203.939C94.8474 207.25 94.0495 210.101 92.4659 212.493C90.8702 214.886 88.6096 216.722 85.6842 218.003L95.6815 232.321H84.5841V232.333ZM81.973 198.188C80.3652 196.847 78.0079 196.182 74.9011 196.182H66.4995V211.708H74.9011C77.9958 211.708 80.3531 211.031 81.973 209.666C83.5807 208.313 84.3907 206.404 84.3907 203.939C84.3907 201.45 83.5807 199.529 81.973 198.188Z" fill="black"/>
<path d="M146.055 187.785L126.761 232.333H116.571L97.3376 187.785H108.483L122.047 219.598L135.804 187.785H146.055Z" fill="black"/>
<path d="M152.293 187.785H162.604V232.333H152.293V187.785Z" fill="black"/>
<path d="M183.469 196.182H169.204V187.785H208.045V196.182H193.781V232.321H183.469V196.182Z" fill="black"/>
<path d="M219.795 227.814C216.253 224.298 214.476 219.272 214.476 212.735V187.785H224.788V212.348C224.788 220.323 228.1 224.31 234.725 224.31C237.953 224.31 240.407 223.343 242.111 221.41C243.803 219.477 244.662 216.456 244.662 212.348V187.785H254.852V212.735C254.852 219.272 253.075 224.298 249.533 227.814C245.991 231.33 241.035 233.094 234.664 233.094C228.294 233.094 223.337 231.33 219.795 227.814Z" fill="black"/>
<path d="M302.989 232.333L302.929 205.606L289.813 227.621H285.171L272.115 206.174V232.333H262.432V187.785H270.967L287.649 215.466L304.077 187.785H312.539L312.672 232.333H302.989Z" fill="black"/>
<path d="M319.865 177.019H316.649V176.186H324.06V177.019H320.844V185.332H319.877V177.019H319.865Z" fill="black"/>
<path d="M335 176.186V185.344H334.069V178.022L330.467 184.184H330.019L326.417 178.059V185.344H325.486V176.186H326.284L330.261 182.976L334.202 176.186H335Z" fill="black"/>
<path d="M39.9045 265.426C39.1671 265.027 38.599 264.471 38.188 263.77C37.7769 263.07 37.5714 262.272 37.5714 261.402C37.5714 260.532 37.7769 259.735 38.188 259.034C38.599 258.333 39.1792 257.777 39.9045 257.379C40.6419 256.98 41.464 256.775 42.3585 256.775C43.2652 256.775 44.0751 256.968 44.8004 257.379C45.5258 257.777 46.0939 258.333 46.517 259.034C46.928 259.747 47.1456 260.532 47.1456 261.414C47.1456 262.296 46.9401 263.082 46.517 263.795C46.0939 264.507 45.5258 265.051 44.8004 265.45C44.0751 265.849 43.2652 266.054 42.3585 266.054C41.4519 266.03 40.6419 265.836 39.9045 265.426ZM44.3169 264.689C44.8971 264.362 45.3565 263.915 45.6829 263.335C46.0093 262.755 46.1785 262.115 46.1785 261.402C46.1785 260.689 46.0093 260.049 45.6829 259.469C45.3565 258.889 44.8971 258.442 44.3169 258.116C43.7366 257.79 43.0839 257.633 42.3585 257.633C41.6332 257.633 40.9804 257.79 40.4002 258.116C39.8199 258.442 39.3485 258.889 39.0221 259.469C38.6836 260.049 38.5264 260.689 38.5264 261.402C38.5264 262.115 38.6957 262.755 39.0221 263.335C39.3606 263.915 39.8199 264.362 40.4002 264.689C40.9804 265.015 41.6453 265.172 42.3585 265.172C43.0839 265.172 43.7366 265.015 44.3169 264.689Z" fill="#00804B"/>
<path d="M56.6231 257.682C57.288 258.237 57.6144 258.999 57.6144 259.977C57.6144 260.956 57.288 261.717 56.6231 262.261C55.9582 262.817 55.0516 263.083 53.8911 263.083H51.4371V265.958H50.47V256.848H53.879C55.0516 256.848 55.9582 257.126 56.6231 257.682ZM55.9341 261.645C56.4055 261.246 56.6473 260.69 56.6473 259.977C56.6473 259.24 56.4055 258.672 55.9341 258.274C55.4505 257.875 54.7615 257.682 53.8669 257.682H51.4492V262.237H53.8669C54.7615 262.237 55.4505 262.031 55.9341 261.645Z" fill="#00804B"/>
<path d="M67.0072 257.682H63.8037V265.958H62.8487V257.682H59.6453V256.848H67.0072V257.682Z" fill="#00804B"/>
<path d="M71.0932 265.427C70.3558 265.028 69.7876 264.472 69.3766 263.771C68.9656 263.07 68.7601 262.273 68.7601 261.403C68.7601 260.533 68.9656 259.736 69.3766 259.035C69.7876 258.334 70.3679 257.778 71.0932 257.38C71.8306 256.981 72.6405 256.776 73.5472 256.776C74.4538 256.776 75.2638 256.969 75.9891 257.38C76.7144 257.778 77.2826 258.334 77.7057 259.035C78.1288 259.748 78.3343 260.533 78.3343 261.415C78.3343 262.297 78.1288 263.083 77.7057 263.795C77.2947 264.508 76.7144 265.052 75.9891 265.451C75.2638 265.849 74.4538 266.055 73.5472 266.055C72.6405 266.031 71.8185 265.837 71.0932 265.427ZM75.5055 264.69C76.0858 264.363 76.5452 263.916 76.8716 263.336C77.198 262.756 77.3672 262.116 77.3672 261.403C77.3672 260.69 77.198 260.05 76.8716 259.47C76.5452 258.89 76.0858 258.443 75.5055 258.117C74.9253 257.79 74.2725 257.633 73.5472 257.633C72.8219 257.633 72.1691 257.79 71.5888 258.117C71.0086 258.443 70.5371 258.89 70.2107 259.47C69.8723 260.05 69.7151 260.69 69.7151 261.403C69.7151 262.116 69.8843 262.756 70.2107 263.336C70.5492 263.916 71.0086 264.363 71.5888 264.69C72.1812 265.016 72.834 265.173 73.5472 265.173C74.2604 265.173 74.9132 265.016 75.5055 264.69Z" fill="#00804B"/>
<path d="M89.3349 256.848V265.958H88.3799V257.682H82.6137V265.958H81.6587V256.848H89.3349Z" fill="#00804B"/>
<path d="M99.7795 265.124V265.958H93.3363V256.848H99.5861V257.682H94.2913V260.92H99.0058V261.741H94.2913V265.124H99.7795Z" fill="#00804B"/>
<path d="M111.965 265.124V268H111.07V265.958H103.116L103.104 268H102.209L102.221 265.124H102.681C103.285 265.088 103.696 264.617 103.938 263.699C104.168 262.78 104.313 261.488 104.373 259.796L104.482 256.836H110.635V265.112H111.965V265.124ZM104.881 263.324C104.712 264.218 104.422 264.822 104.023 265.124H109.632V257.682H105.268L105.195 259.893C105.159 261.282 105.062 262.418 104.881 263.324Z" fill="#00804B"/>
<path d="M115.011 256.848H115.966V264.4L121.805 256.848H122.675V265.958H121.72V258.419L115.882 265.958H115.011V256.848Z" fill="#00804B"/>
<path d="M133.205 256.848V265.958H132.262V262.176C131.27 262.599 130.315 262.817 129.385 262.817C128.321 262.817 127.487 262.551 126.894 262.031C126.302 261.512 126 260.775 126 259.844V256.836H126.955V259.736C126.955 260.436 127.172 260.992 127.62 261.379C128.067 261.766 128.683 261.971 129.481 261.971C130.388 261.971 131.319 261.753 132.274 261.319V256.836H133.205V256.848Z" fill="#00804B"/>
<path d="M143.661 265.124V265.958H137.218V256.848H143.468V257.682H138.173V260.92H142.888V261.741H138.173V265.124H143.661Z" fill="#00804B"/>
<path d="M148.34 265.439C147.614 265.04 147.046 264.484 146.635 263.783C146.224 263.083 146.018 262.285 146.018 261.403C146.018 260.521 146.224 259.736 146.635 259.023C147.046 258.31 147.614 257.766 148.352 257.368C149.077 256.969 149.899 256.763 150.806 256.763C151.483 256.763 152.111 256.872 152.679 257.102C153.248 257.331 153.743 257.658 154.142 258.092L153.526 258.709C152.812 257.984 151.918 257.633 150.83 257.633C150.104 257.633 149.452 257.803 148.859 258.129C148.267 258.455 147.808 258.914 147.469 259.482C147.131 260.05 146.961 260.702 146.961 261.403C146.961 262.116 147.131 262.756 147.469 263.324C147.808 263.892 148.267 264.351 148.859 264.677C149.452 265.004 150.104 265.173 150.83 265.173C151.918 265.173 152.824 264.81 153.526 264.073L154.142 264.69C153.743 265.124 153.248 265.451 152.679 265.692C152.099 265.922 151.47 266.043 150.794 266.043C149.875 266.031 149.065 265.837 148.34 265.439Z" fill="#00804B"/>
<path d="M160.198 261.778H158.119V265.958H157.176V256.848H158.119V260.932H160.198L163.281 256.848H164.321L160.936 261.27L164.514 265.958H163.402L160.198 261.778Z" fill="#00804B"/>
<path d="M167.488 256.848H168.443V264.4L174.282 256.848H175.152V265.958H174.197V258.419L168.358 265.958H167.488V256.848Z" fill="#00804B"/>
<path d="M185.597 265.124V265.958H179.141V256.848H185.391V257.682H180.096V260.92H184.811V261.741H180.096V265.124H185.597Z" fill="#00804B"/>
<path d="M199.716 257.682H196.513V265.958H195.558V257.682H192.354V256.848H199.716V257.682Z" fill="#00804B"/>
<path d="M209.073 265.124V265.958H202.63V256.848H208.879V257.682H203.585V260.92H208.299V261.741H203.585V265.124H209.073Z" fill="#00804B"/>
<path d="M212.905 256.848L215.504 260.461L218.079 256.848H219.215L216.096 261.222L219.457 265.958H218.321L215.492 262.043L212.663 265.958H211.551L214.9 261.258L211.781 256.848H212.905Z" fill="#00804B"/>
<path d="M230.034 256.848V265.958H229.079V261.753H223.374V265.958H222.407V256.848H223.374V260.908H229.079V256.848H230.034Z" fill="#00804B"/>
<path d="M235.716 265.427C234.979 265.028 234.411 264.472 234 263.771C233.589 263.07 233.383 262.273 233.383 261.403C233.383 260.533 233.589 259.736 234 259.035C234.411 258.334 234.991 257.778 235.716 257.38C236.454 256.981 237.276 256.776 238.17 256.776C239.077 256.776 239.887 256.969 240.612 257.38C241.337 257.778 241.905 258.334 242.329 259.035C242.74 259.748 242.957 260.533 242.957 261.415C242.957 262.297 242.752 263.083 242.329 263.795C241.905 264.508 241.337 265.052 240.612 265.451C239.887 265.849 239.077 266.055 238.17 266.055C237.263 266.031 236.454 265.837 235.716 265.427ZM240.128 264.69C240.709 264.363 241.168 263.916 241.494 263.336C241.821 262.756 241.99 262.116 241.99 261.403C241.99 260.69 241.821 260.05 241.494 259.47C241.168 258.89 240.709 258.443 240.128 258.117C239.548 257.79 238.895 257.633 238.17 257.633C237.445 257.633 236.792 257.79 236.212 258.117C235.631 258.443 235.16 258.89 234.834 259.47C234.495 260.05 234.326 260.69 234.326 261.403C234.326 262.116 234.495 262.756 234.834 263.336C235.172 263.916 235.631 264.363 236.212 264.69C236.792 265.016 237.457 265.173 238.17 265.173C238.895 265.173 239.548 265.016 240.128 264.69Z" fill="#00804B"/>
<path d="M253.22 256.848V265.958H252.265V257.682H247.865L247.756 260.726C247.708 261.983 247.611 262.998 247.454 263.771C247.297 264.545 247.043 265.112 246.717 265.487C246.39 265.861 245.943 266.055 245.399 266.055C245.169 266.055 244.916 266.019 244.674 265.958L244.746 265.1C244.891 265.137 245.036 265.149 245.182 265.149C245.568 265.149 245.871 265.004 246.112 264.69C246.354 264.387 246.535 263.916 246.656 263.276C246.777 262.635 246.862 261.79 246.91 260.739L247.043 256.836H253.22V256.848Z" fill="#00804B"/>
<path d="M258.878 265.427C258.14 265.028 257.572 264.472 257.161 263.771C256.75 263.07 256.545 262.273 256.545 261.403C256.545 260.533 256.75 259.736 257.161 259.035C257.572 258.334 258.153 257.778 258.878 257.38C259.615 256.981 260.437 256.776 261.332 256.776C262.239 256.776 263.048 256.969 263.774 257.38C264.499 257.778 265.067 258.334 265.49 259.035C265.901 259.748 266.119 260.533 266.119 261.415C266.119 262.297 265.914 263.083 265.49 263.795C265.067 264.508 264.499 265.052 263.774 265.451C263.048 265.849 262.239 266.055 261.332 266.055C260.425 266.031 259.603 265.837 258.878 265.427ZM263.278 264.69C263.858 264.363 264.318 263.916 264.644 263.336C264.971 262.756 265.14 262.116 265.14 261.403C265.14 260.69 264.971 260.05 264.644 259.47C264.318 258.89 263.858 258.443 263.278 258.117C262.698 257.79 262.045 257.633 261.32 257.633C260.594 257.633 259.942 257.79 259.361 258.117C258.781 258.443 258.31 258.89 257.983 259.47C257.645 260.05 257.476 260.69 257.476 261.403C257.476 262.116 257.645 262.756 257.983 263.336C258.322 263.916 258.781 264.363 259.361 264.69C259.942 265.016 260.607 265.173 261.32 265.173C262.045 265.173 262.698 265.016 263.278 264.69Z" fill="#00804B"/>
<path d="M275.234 257.682H270.374L270.386 265.958H269.431V256.848H275.222V257.682H275.234Z" fill="#00804B"/>
<path d="M278.111 256.848H279.066V264.4L284.905 256.848H285.775V265.958H284.82V258.419L278.981 265.958H278.111V256.848Z" fill="#00804B"/>
<path d="M289.776 256.848H290.731V264.4L296.57 256.848H297.441V265.958H296.486V258.419L290.647 265.958H289.776V256.848Z" fill="#00804B"/>
<path d="M223.93 92.3097C219.336 95.6203 214.404 98.6288 209.085 101.384C204.249 103.885 199.39 106.035 194.651 107.92L202.617 127.808C205.144 134.103 211.176 138.247 217.97 138.247H240.95C241.688 138.247 242.341 137.824 242.74 137.196C243.139 136.58 243.199 135.806 242.909 135.142L223.93 92.3097Z" fill="url(#paint0_linear)"/>
<path d="M115.362 88.2499C119.109 86.6067 123.05 85.2535 126.846 83.9365C133.458 81.653 140.216 79.309 146.865 75.2976L160.791 40.5969C161.359 39.1953 162.701 38.2892 164.212 38.2892C165.723 38.2892 167.077 39.1953 167.633 40.5969L171.199 49.4775C176.168 42.9167 182.659 36.0781 195.654 28.5145L190.505 16.9033C185.971 6.63324 175.769 0 164.538 0C153.284 0 143.081 6.64533 138.536 16.9275L105.159 92.503C106.38 91.9955 107.625 91.476 108.894 90.9564C110.986 90.0986 113.15 89.2165 115.362 88.2499Z" fill="url(#paint1_linear)"/>
<path d="M190.807 109.31H190.855L190.819 109.297L190.807 109.31Z" fill="url(#paint2_linear)"/>
<path d="M248.288 26.1947C246.197 24.2373 240.249 21.5067 231.219 21.5067C223.277 21.5067 212.953 23.6211 200.768 30.2061C200.333 30.4356 199.898 30.6773 199.45 30.931C198.713 31.3418 197.987 31.7647 197.286 32.1755C183.928 40.017 177.884 47.0127 172.952 53.8151C172.795 54.0205 172.65 54.238 172.505 54.4434C174.463 60.5087 174.511 66.3446 172.613 71.5037C170.389 77.5208 165.65 82.3658 158.893 85.4831C149.851 89.6757 138.1 91.2222 126.737 92.7205C119.363 93.6991 112.315 94.6295 106.573 96.2244C105.28 96.7681 104.011 97.3239 102.79 97.8797C100.795 98.7979 98.9212 99.7645 97.1442 100.84C92.9736 103.365 89.4679 106.506 86.8326 111.098C86.7359 111.255 86.6634 111.436 86.5787 111.629C82.1301 119.133 82.9401 128.956 89.1899 135.661C89.6613 136.169 94.8474 142.077 103.938 142.077C110.949 142.077 116.244 140.132 121.116 138.017C130.98 133.74 141.642 124.558 161.407 116.003C169.64 112.439 179.298 109.503 189.465 105.649C190.698 105.177 191.931 104.706 193.164 104.211C202.762 100.381 212.724 95.5961 222.274 88.6004C223.362 87.8029 224.449 86.9813 225.525 86.1355C229.37 83.0908 233.129 79.6473 236.756 75.7447C261.114 49.55 252.277 29.9402 248.288 26.1947ZM110.78 129.608C104.675 129.608 99.7191 124.642 99.7191 118.553C99.7191 112.451 104.687 107.497 110.78 107.497C116.885 107.497 121.841 112.463 121.841 118.553C121.841 124.654 116.885 129.608 110.78 129.608Z" fill="url(#paint3_linear)"/>
<path d="M110.78 111.037C106.634 111.037 103.261 114.408 103.261 118.553C103.261 122.697 106.634 126.068 110.78 126.068C114.927 126.068 118.299 122.697 118.299 118.553C118.299 114.408 114.927 111.037 110.78 111.037Z" fill="url(#paint4_linear)"/>
<path d="M157.394 82.2692C167.657 77.5208 172.118 68.604 169.845 58.189C166.871 62.4178 163.825 66.6225 159.159 70.9601C156.161 73.7632 153.115 76.0468 150.068 77.98C148.219 79.152 146.369 80.191 144.532 81.1214C136.988 84.9515 129.457 87.1143 122.361 89.7361C123.655 89.5549 124.96 89.3858 126.278 89.2166C137.363 87.7425 148.835 86.2202 157.394 82.2692Z" fill="url(#paint5_linear)"/>
<defs>
<linearGradient id="paint0_linear" x1="121.163" y1="205.022" x2="287.952" y2="64.0009" gradientUnits="userSpaceOnUse">
<stop stop-color="#06A752"/>
<stop offset="0.252" stop-color="#009950"/>
<stop offset="0.7232" stop-color="#00864C"/>
<stop offset="1" stop-color="#00804B"/>
</linearGradient>
<linearGradient id="paint1_linear" x1="50.7687" y1="121.883" x2="217.641" y2="-19.2083" gradientUnits="userSpaceOnUse">
<stop stop-color="#06A752"/>
<stop offset="0.252" stop-color="#009950"/>
<stop offset="0.7232" stop-color="#00864C"/>
<stop offset="1" stop-color="#00804B"/>
</linearGradient>
<linearGradient id="paint2_linear" x1="103.225" y1="183.323" x2="269.549" y2="42.7241" gradientUnits="userSpaceOnUse">
<stop stop-color="#06A752"/>
<stop offset="0.252" stop-color="#009950"/>
<stop offset="0.7232" stop-color="#00864C"/>
<stop offset="1" stop-color="#00804B"/>
</linearGradient>
<linearGradient id="paint3_linear" x1="82.6976" y1="159.647" x2="249.57" y2="18.5548" gradientUnits="userSpaceOnUse">
<stop stop-color="#06A752"/>
<stop offset="0.252" stop-color="#009950"/>
<stop offset="0.7232" stop-color="#00864C"/>
<stop offset="1" stop-color="#00804B"/>
</linearGradient>
<linearGradient id="paint4_linear" x1="74.1277" y1="149.511" x2="241.001" y2="8.41854" gradientUnits="userSpaceOnUse">
<stop stop-color="#06A752"/>
<stop offset="0.252" stop-color="#009950"/>
<stop offset="0.7232" stop-color="#00864C"/>
<stop offset="1" stop-color="#00804B"/>
</linearGradient>
<linearGradient id="paint5_linear" x1="70.5081" y1="145.229" x2="237.381" y2="4.13747" gradientUnits="userSpaceOnUse">
<stop stop-color="#06A752"/>
<stop offset="0.252" stop-color="#009950"/>
<stop offset="0.7232" stop-color="#00864C"/>
<stop offset="1" stop-color="#00804B"/>
</linearGradient>
</defs>
</svg>
