<svg width="335" height="269" viewBox="0 0 335 269" fill="none" xmlns="http://www.w3.org/2000/svg">
<path d="M35.2021 222.902H14.5184L10.5655 232.452H0L19.8616 187.881H30.0523L49.9744 232.452H39.1551L35.2021 222.902ZM31.9623 215.069L24.8905 198.012L17.8186 215.069H31.9623Z" fill="white"/>
<path d="M84.5842 232.452L75.9892 220.037H75.4814H66.4996V232.452H56.188V187.881H75.4814C79.4344 187.881 82.8555 188.534 85.7689 189.852C88.6701 191.17 90.9186 193.031 92.4901 195.449C94.0617 197.867 94.8474 200.732 94.8474 204.044C94.8474 207.356 94.0496 210.209 92.466 212.603C90.8703 214.996 88.6097 216.834 85.6842 218.115L95.6815 232.44H84.5842V232.452ZM81.973 198.29C80.3652 196.948 78.008 196.283 74.9012 196.283H66.4996V211.817H74.9012C77.9959 211.817 80.3532 211.14 81.973 209.774C83.5808 208.42 84.3908 206.51 84.3908 204.044C84.3908 201.554 83.5808 199.632 81.973 198.29Z" fill="white"/>
<path d="M146.055 187.881L126.761 232.452H116.57L97.3374 187.881H108.483L122.047 219.711L135.803 187.881H146.055Z" fill="white"/>
<path d="M152.292 187.881H162.604V232.452H152.292V187.881Z" fill="white"/>
<path d="M183.469 196.283H169.205V187.881H208.045V196.283H193.781V232.44H183.469V196.283Z" fill="white"/>
<path d="M219.795 227.931C216.253 224.413 214.476 219.384 214.476 212.844V187.881H224.788V212.458C224.788 220.436 228.1 224.425 234.725 224.425C237.952 224.425 240.406 223.458 242.111 221.524C243.803 219.59 244.661 216.568 244.661 212.458V187.881H254.852V212.844C254.852 219.384 253.075 224.413 249.533 227.931C245.991 231.449 241.035 233.214 234.664 233.214C228.293 233.214 223.337 231.449 219.795 227.931Z" fill="white"/>
<path d="M302.989 232.452L302.929 205.712L289.812 227.738H285.17L272.115 206.28V232.452H262.432V187.881H270.966L287.649 215.577L304.077 187.881H312.539L312.672 232.452H302.989Z" fill="white"/>
<path d="M319.865 177.11H316.649V176.276H324.06V177.11H320.844V185.427H319.877V177.11H319.865Z" fill="white"/>
<path d="M335 176.276V185.44H334.069V178.114L330.467 184.279H330.02L326.417 178.15V185.44H325.486V176.276H326.284L330.261 183.07L334.202 176.276H335Z" fill="white"/>
<path d="M39.9044 265.563C39.167 265.164 38.5988 264.608 38.1878 263.907C37.7768 263.206 37.5713 262.408 37.5713 261.538C37.5713 260.667 37.7768 259.869 38.1878 259.168C38.5988 258.467 39.1791 257.911 39.9044 257.512C40.6418 257.113 41.4638 256.908 42.3584 256.908C43.265 256.908 44.075 257.101 44.8003 257.512C45.5256 257.911 46.0938 258.467 46.5169 259.168C46.9279 259.881 47.1455 260.667 47.1455 261.55C47.1455 262.432 46.94 263.218 46.5169 263.931C46.0938 264.644 45.5256 265.188 44.8003 265.587C44.075 265.986 43.265 266.192 42.3584 266.192C41.4517 266.167 40.6418 265.974 39.9044 265.563ZM44.3167 264.826C44.897 264.499 45.3564 264.052 45.6828 263.472C46.0092 262.891 46.1784 262.251 46.1784 261.538C46.1784 260.824 46.0092 260.184 45.6828 259.603C45.3564 259.023 44.897 258.576 44.3167 258.249C43.7365 257.923 43.0837 257.766 42.3584 257.766C41.6331 257.766 40.9803 257.923 40.4 258.249C39.8198 258.576 39.3483 259.023 39.0219 259.603C38.6834 260.184 38.5263 260.824 38.5263 261.538C38.5263 262.251 38.6955 262.891 39.0219 263.472C39.3604 264.052 39.8198 264.499 40.4 264.826C40.9803 265.152 41.6452 265.309 42.3584 265.309C43.0837 265.309 43.7365 265.152 44.3167 264.826Z" fill="#00804B"/>
<path d="M56.6228 257.814C57.2877 258.37 57.6141 259.132 57.6141 260.111C57.6141 261.09 57.2877 261.852 56.6228 262.396C55.958 262.952 55.0513 263.218 53.8908 263.218H51.4368V266.095H50.4697V256.98H53.8787C55.0513 256.98 55.958 257.258 56.6228 257.814ZM55.9338 261.779C56.4052 261.38 56.647 260.824 56.647 260.111C56.647 259.374 56.4052 258.806 55.9338 258.407C55.4502 258.008 54.7612 257.814 53.8666 257.814H51.4489V262.372H53.8666C54.7612 262.372 55.4502 262.166 55.9338 261.779Z" fill="#00804B"/>
<path d="M67.007 257.814H63.8035V266.095H62.8485V257.814H59.645V256.98H67.007V257.814Z" fill="#00804B"/>
<path d="M71.0929 265.563C70.3555 265.164 69.7873 264.608 69.3763 263.907C68.9653 263.206 68.7598 262.408 68.7598 261.538C68.7598 260.667 68.9653 259.869 69.3763 259.168C69.7873 258.467 70.3676 257.911 71.0929 257.512C71.8303 257.113 72.6402 256.908 73.5469 256.908C74.4535 256.908 75.2634 257.101 75.9888 257.512C76.7141 257.911 77.2822 258.467 77.7053 259.168C78.1284 259.881 78.334 260.667 78.334 261.55C78.334 262.432 78.1284 263.218 77.7053 263.931C77.2943 264.644 76.7141 265.188 75.9888 265.587C75.2634 265.986 74.4535 266.192 73.5469 266.192C72.6402 266.167 71.8182 265.974 71.0929 265.563ZM75.5052 264.826C76.0855 264.499 76.5448 264.052 76.8712 263.472C77.1976 262.891 77.3669 262.251 77.3669 261.538C77.3669 260.824 77.1976 260.184 76.8712 259.603C76.5448 259.023 76.0855 258.576 75.5052 258.249C74.925 257.923 74.2722 257.766 73.5469 257.766C72.8215 257.766 72.1688 257.923 71.5885 258.249C71.0083 258.576 70.5368 259.023 70.2104 259.603C69.8719 260.184 69.7148 260.824 69.7148 261.538C69.7148 262.251 69.884 262.891 70.2104 263.472C70.5489 264.052 71.0083 264.499 71.5885 264.826C72.1808 265.152 72.8336 265.309 73.5469 265.309C74.2601 265.309 74.9129 265.152 75.5052 264.826Z" fill="#00804B"/>
<path d="M89.335 256.98V266.095H88.38V257.814H82.6137V266.095H81.6587V256.98H89.335Z" fill="#00804B"/>
<path d="M99.7792 265.261V266.095H93.3359V256.98H99.5858V257.814H94.2909V261.054H99.0055V261.876H94.2909V265.261H99.7792Z" fill="#00804B"/>
<path d="M111.965 265.261V268.138H111.07V266.095H103.116L103.104 268.138H102.209L102.222 265.261H102.681C103.285 265.225 103.696 264.753 103.938 263.834C104.168 262.916 104.313 261.622 104.373 259.93L104.482 256.968H110.635V265.249H111.965V265.261ZM104.881 263.46C104.712 264.354 104.422 264.959 104.023 265.261H109.632V257.814H105.268L105.195 260.027C105.159 261.417 105.062 262.553 104.881 263.46Z" fill="#00804B"/>
<path d="M115.011 256.98H115.966V264.536L121.805 256.98H122.675V266.095H121.72V258.552L115.882 266.095H115.011V256.98Z" fill="#00804B"/>
<path d="M133.204 256.98V266.095H132.261V262.311C131.27 262.734 130.315 262.952 129.384 262.952C128.321 262.952 127.486 262.686 126.894 262.166C126.302 261.646 126 260.909 126 259.978V256.968H126.955V259.869C126.955 260.571 127.172 261.127 127.619 261.513C128.067 261.9 128.683 262.106 129.481 262.106C130.388 262.106 131.319 261.888 132.274 261.453V256.968H133.204V256.98Z" fill="#00804B"/>
<path d="M143.661 265.261V266.095H137.218V256.98H143.468V257.814H138.173V261.054H142.888V261.876H138.173V265.261H143.661Z" fill="#00804B"/>
<path d="M148.34 265.575C147.614 265.176 147.046 264.62 146.635 263.919C146.224 263.218 146.019 262.42 146.019 261.538C146.019 260.655 146.224 259.869 146.635 259.156C147.046 258.443 147.614 257.899 148.352 257.5C149.077 257.101 149.899 256.896 150.806 256.896C151.483 256.896 152.111 257.004 152.679 257.234C153.248 257.464 153.743 257.79 154.142 258.225L153.526 258.842C152.812 258.116 151.918 257.766 150.83 257.766C150.105 257.766 149.452 257.935 148.859 258.262C148.267 258.588 147.808 259.047 147.469 259.615C147.131 260.184 146.961 260.836 146.961 261.538C146.961 262.251 147.131 262.891 147.469 263.46C147.808 264.028 148.267 264.487 148.859 264.814C149.452 265.14 150.105 265.309 150.83 265.309C151.918 265.309 152.824 264.947 153.526 264.209L154.142 264.826C153.743 265.261 153.248 265.587 152.679 265.829C152.099 266.059 151.471 266.18 150.794 266.18C149.875 266.167 149.065 265.974 148.34 265.575Z" fill="#00804B"/>
<path d="M160.198 261.912H158.119V266.095H157.176V256.98H158.119V261.066H160.198L163.281 256.98H164.321L160.936 261.405L164.514 266.095H163.402L160.198 261.912Z" fill="#00804B"/>
<path d="M167.488 256.98H168.443V264.536L174.282 256.98H175.152V266.095H174.197V258.552L168.358 266.095H167.488V256.98Z" fill="#00804B"/>
<path d="M185.596 265.261V266.095H179.141V256.98H185.391V257.814H180.096V261.054H184.811V261.876H180.096V265.261H185.596Z" fill="#00804B"/>
<path d="M199.716 257.814H196.512V266.095H195.558V257.814H192.354V256.98H199.716V257.814Z" fill="#00804B"/>
<path d="M209.073 265.261V266.095H202.629V256.98H208.879V257.814H203.584V261.054H208.299V261.876H203.584V265.261H209.073Z" fill="#00804B"/>
<path d="M212.905 256.98L215.504 260.595L218.079 256.98H219.215L216.096 261.356L219.457 266.095H218.32L215.492 262.178L212.663 266.095H211.551L214.899 261.393L211.78 256.98H212.905Z" fill="#00804B"/>
<path d="M230.034 256.98V266.095H229.079V261.888H223.373V266.095H222.406V256.98H223.373V261.042H229.079V256.98H230.034Z" fill="#00804B"/>
<path d="M235.716 265.563C234.979 265.164 234.41 264.608 233.999 263.907C233.588 263.206 233.383 262.408 233.383 261.538C233.383 260.667 233.588 259.869 233.999 259.168C234.41 258.467 234.991 257.911 235.716 257.512C236.453 257.113 237.275 256.908 238.17 256.908C239.077 256.908 239.886 257.101 240.612 257.512C241.337 257.911 241.905 258.467 242.328 259.168C242.739 259.881 242.957 260.667 242.957 261.55C242.957 262.432 242.752 263.218 242.328 263.931C241.905 264.644 241.337 265.188 240.612 265.587C239.886 265.986 239.077 266.192 238.17 266.192C237.263 266.167 236.453 265.974 235.716 265.563ZM240.128 264.826C240.709 264.499 241.168 264.052 241.494 263.472C241.821 262.891 241.99 262.251 241.99 261.538C241.99 260.824 241.821 260.184 241.494 259.603C241.168 259.023 240.709 258.576 240.128 258.249C239.548 257.923 238.895 257.766 238.17 257.766C237.445 257.766 236.792 257.923 236.212 258.249C235.631 258.576 235.16 259.023 234.833 259.603C234.495 260.184 234.326 260.824 234.326 261.538C234.326 262.251 234.495 262.891 234.833 263.472C235.172 264.052 235.631 264.499 236.212 264.826C236.792 265.152 237.457 265.309 238.17 265.309C238.895 265.309 239.548 265.152 240.128 264.826Z" fill="#00804B"/>
<path d="M253.22 256.98V266.095H252.265V257.814H247.865L247.756 260.861C247.708 262.118 247.611 263.133 247.454 263.907C247.297 264.681 247.043 265.249 246.716 265.624C246.39 265.998 245.943 266.192 245.399 266.192C245.169 266.192 244.915 266.155 244.673 266.095L244.746 265.237C244.891 265.273 245.036 265.285 245.181 265.285C245.568 265.285 245.87 265.14 246.112 264.826C246.354 264.524 246.535 264.052 246.656 263.411C246.777 262.771 246.861 261.924 246.91 260.873L247.043 256.968H253.22V256.98Z" fill="#00804B"/>
<path d="M258.878 265.563C258.141 265.164 257.572 264.608 257.161 263.907C256.75 263.206 256.545 262.408 256.545 261.538C256.545 260.667 256.75 259.869 257.161 259.168C257.572 258.467 258.153 257.911 258.878 257.512C259.615 257.113 260.437 256.908 261.332 256.908C262.239 256.908 263.049 257.101 263.774 257.512C264.499 257.911 265.067 258.467 265.49 259.168C265.902 259.881 266.119 260.667 266.119 261.55C266.119 262.432 265.914 263.218 265.49 263.931C265.067 264.644 264.499 265.188 263.774 265.587C263.049 265.986 262.239 266.192 261.332 266.192C260.425 266.167 259.603 265.974 258.878 265.563ZM263.278 264.826C263.859 264.499 264.318 264.052 264.644 263.472C264.971 262.891 265.14 262.251 265.14 261.538C265.14 260.824 264.971 260.184 264.644 259.603C264.318 259.023 263.859 258.576 263.278 258.249C262.698 257.923 262.045 257.766 261.32 257.766C260.595 257.766 259.942 257.923 259.362 258.249C258.781 258.576 258.31 259.023 257.983 259.603C257.645 260.184 257.476 260.824 257.476 261.538C257.476 262.251 257.645 262.891 257.983 263.472C258.322 264.052 258.781 264.499 259.362 264.826C259.942 265.152 260.607 265.309 261.32 265.309C262.045 265.309 262.698 265.152 263.278 264.826Z" fill="#00804B"/>
<path d="M275.233 257.814H270.374L270.386 266.095H269.431V256.98H275.221V257.814H275.233Z" fill="#00804B"/>
<path d="M278.111 256.98H279.066V264.536L284.905 256.98H285.775V266.095H284.82V258.552L278.981 266.095H278.111V256.98Z" fill="#00804B"/>
<path d="M289.776 256.98H290.731V264.536L296.57 256.98H297.441V266.095H296.486V258.552L290.647 266.095H289.776V256.98Z" fill="#00804B"/>
<path d="M223.93 92.3572C219.336 95.6695 214.404 98.6795 209.085 101.436C204.249 103.938 199.39 106.09 194.651 107.976L202.617 127.874C205.144 134.172 211.176 138.318 217.97 138.318H240.95C241.688 138.318 242.341 137.895 242.739 137.266C243.138 136.65 243.199 135.876 242.909 135.211L223.93 92.3572Z" fill="url(#paint0_linear)"/>
<path d="M115.362 88.2953C119.109 86.6513 123.05 85.2973 126.846 83.9797C133.459 81.6949 140.216 79.3497 146.865 75.3363L160.791 40.6178C161.359 39.2155 162.701 38.3089 164.212 38.3089C165.723 38.3089 167.077 39.2155 167.633 40.6178L171.199 49.5029C176.168 42.9388 182.659 36.0966 195.655 28.5292L190.505 16.912C185.972 6.63666 175.769 0 164.539 0C153.284 0 143.081 6.64874 138.536 16.9362L105.159 92.5505C106.38 92.0428 107.625 91.523 108.895 91.0032C110.986 90.1449 113.15 89.2624 115.362 88.2953Z" fill="url(#paint1_linear)"/>
<path d="M190.807 109.366H190.855L190.819 109.354L190.807 109.366Z" fill="url(#paint2_linear)"/>
<path d="M248.288 26.2081C246.197 24.2498 240.249 21.5178 231.219 21.5178C223.277 21.5178 212.953 23.6333 200.768 30.2216C200.332 30.4513 199.897 30.693 199.45 30.9469C198.713 31.3579 197.987 31.781 197.286 32.192C183.928 40.0375 177.884 47.0369 172.952 53.8428C172.795 54.0483 172.65 54.2659 172.504 54.4714C174.463 60.5399 174.511 66.3787 172.613 71.5405C170.389 77.5606 165.65 82.4082 158.893 85.527C149.85 89.7218 138.1 91.2691 126.737 92.7681C119.363 93.7473 112.315 94.6781 106.573 96.2738C105.28 96.8178 104.01 97.3739 102.789 97.93C100.795 98.8487 98.921 99.8158 97.144 100.892C92.9734 103.418 89.4677 106.561 86.8324 111.155C86.7357 111.312 86.6631 111.493 86.5785 111.687C82.1299 119.194 82.9398 129.022 89.1897 135.731C89.6611 136.239 94.8471 142.15 103.938 142.15C110.949 142.15 116.244 140.204 121.116 138.088C130.98 133.809 141.642 124.622 161.407 116.063C169.639 112.497 179.298 109.559 189.465 105.703C190.698 105.231 191.931 104.76 193.164 104.264C202.762 100.432 212.723 95.6452 222.273 88.6459C223.361 87.8481 224.449 87.026 225.525 86.1798C229.369 83.1335 233.129 79.6882 236.756 75.7836C261.114 49.5755 252.277 29.9556 248.288 26.2081ZM110.78 129.675C104.675 129.675 99.7189 124.706 99.7189 118.614C99.7189 112.509 104.687 107.553 110.78 107.553C116.885 107.553 121.841 112.521 121.841 118.614C121.841 124.718 116.885 129.675 110.78 129.675Z" fill="url(#paint3_linear)"/>
<path d="M110.779 111.094C106.633 111.094 103.26 114.467 103.26 118.614C103.26 122.76 106.633 126.133 110.779 126.133C114.926 126.133 118.299 122.76 118.299 118.614C118.299 114.467 114.926 111.094 110.779 111.094Z" fill="url(#paint4_linear)"/>
<path d="M157.394 82.3115C167.657 77.5607 172.118 68.6393 169.845 58.2189C166.871 62.4499 163.825 66.6567 159.159 70.9965C156.161 73.8011 153.114 76.0859 150.068 78.02C148.218 79.1926 146.369 80.2323 144.531 81.1631C136.988 84.9952 129.457 87.159 122.361 89.7823C123.654 89.6009 124.96 89.4317 126.278 89.2625C137.363 87.7876 148.835 86.2645 157.394 82.3115Z" fill="url(#paint5_linear)"/>
<defs>
<linearGradient id="paint0_linear" x1="121.162" y1="205.127" x2="288.023" y2="64.1184" gradientUnits="userSpaceOnUse">
<stop stop-color="#06A752"/>
<stop offset="0.252" stop-color="#009950"/>
<stop offset="0.7232" stop-color="#00864C"/>
<stop offset="1" stop-color="#00804B"/>
</linearGradient>
<linearGradient id="paint1_linear" x1="50.7689" y1="121.946" x2="217.713" y2="-19.1335" gradientUnits="userSpaceOnUse">
<stop stop-color="#06A752"/>
<stop offset="0.252" stop-color="#009950"/>
<stop offset="0.7232" stop-color="#00864C"/>
<stop offset="1" stop-color="#00804B"/>
</linearGradient>
<linearGradient id="paint2_linear" x1="103.208" y1="183.418" x2="269.608" y2="42.7976" gradientUnits="userSpaceOnUse">
<stop stop-color="#06A752"/>
<stop offset="0.252" stop-color="#009950"/>
<stop offset="0.7232" stop-color="#00864C"/>
<stop offset="1" stop-color="#00804B"/>
</linearGradient>
<linearGradient id="paint3_linear" x1="82.6974" y1="159.729" x2="249.642" y2="18.6489" gradientUnits="userSpaceOnUse">
<stop stop-color="#06A752"/>
<stop offset="0.252" stop-color="#009950"/>
<stop offset="0.7232" stop-color="#00864C"/>
<stop offset="1" stop-color="#00804B"/>
</linearGradient>
<linearGradient id="paint4_linear" x1="74.1269" y1="149.587" x2="241.071" y2="8.50744" gradientUnits="userSpaceOnUse">
<stop stop-color="#06A752"/>
<stop offset="0.252" stop-color="#009950"/>
<stop offset="0.7232" stop-color="#00864C"/>
<stop offset="1" stop-color="#00804B"/>
</linearGradient>
<linearGradient id="paint5_linear" x1="70.5079" y1="145.304" x2="237.452" y2="4.22417" gradientUnits="userSpaceOnUse">
<stop stop-color="#06A752"/>
<stop offset="0.252" stop-color="#009950"/>
<stop offset="0.7232" stop-color="#00864C"/>
<stop offset="1" stop-color="#00804B"/>
</linearGradient>
</defs>
</svg>
