<svg width="28" height="25" viewBox="0 0 28 25" fill="none" xmlns="http://www.w3.org/2000/svg">
<path d="M27.4853 11.0907L17.0571 0.662489C16.3272 -0.0674302 15.0791 0.449526 15.0791 1.48181V6.12187C8.44251 6.39773 2.58877 10.9166 0.733633 17.3475C0.114133 19.4942 -0.0404436 21.2609 0.00838424 23.1624C0.0145217 23.3856 0.0160968 23.45 0.0160968 23.4969C0.0160968 24.6742 1.56832 25.1012 2.1705 24.0895C3.46137 21.9206 4.92751 20.2446 6.53366 19.0058C9.43737 16.7663 12.4605 16.1177 15.0791 16.3796V22.3382C15.0791 23.3705 16.3272 23.8874 17.0571 23.1575L27.4853 12.7293C27.9378 12.2768 27.9378 11.5432 27.4853 11.0907ZM17.3965 19.5409V15.3861C17.3965 14.8553 17.0358 14.3924 16.5211 14.2625C16.3801 14.227 16.1459 14.1804 15.8282 14.1359C12.546 13.6767 8.73304 14.383 5.11842 17.1708C4.22925 17.8565 3.3825 18.6535 2.58263 19.5663L2.60033 19.4735C2.69272 18.9978 2.81102 18.5065 2.96011 17.9899C4.61395 12.2567 10.0227 8.29989 16.0123 8.429C16.1135 8.43079 16.1509 8.4316 16.1978 8.43323C16.853 8.45583 17.3964 7.93083 17.3964 7.27521V4.27912L25.0273 11.91L17.3965 19.5409Z" fill="#C4C4C4"/>
</svg>
