<svg width="90" height="120" viewBox="0 0 90 120" fill="none" xmlns="http://www.w3.org/2000/svg">
<path d="M21.6524 120H68.0056C79.953 120 89.6582 110.295 89.6582 98.3474V21.6526C89.6582 9.70511 79.953 0 68.0056 0H21.6524C9.7049 0 -0.000289917 9.70511 -0.000289917 21.6526V98.3825C-0.000289917 110.295 9.73994 120 21.6524 120ZM68.0056 7.0073C76.064 7.0073 82.6509 13.5591 82.6509 21.6526V98.3825C82.6509 106.441 76.099 113.028 68.0056 113.028H21.6524C13.594 113.028 7.00701 106.476 7.00701 98.3825V21.6526C7.00701 13.5942 13.5589 7.0073 21.6524 7.0073H68.0056Z" fill="#DCDCDC"/>
<path d="M46.3879 26.7335C48.8755 29.9218 53.0098 29.8518 55.2171 26.6284C57.5645 23.1948 57.3193 17.4138 54.3412 14.3656C53.185 13.1744 51.293 12.0883 49.7865 11.9131C43.3047 12.1583 42.8843 22.2839 46.3879 26.7335Z" fill="#DCDCDC"/>
<path d="M57.4596 81.8805C54.9019 77.7462 52.7646 73.4718 51.5734 68.6718C50.6274 64.8528 50.8727 61.2791 52.3092 57.7754C53.5355 54.8324 54.8669 51.9594 56.0231 49.0163C59.3515 40.7127 53.9208 30.482 43.4799 31.0426C35.7719 31.463 29.7106 35.247 25.0858 41.4835C21.7573 45.9681 22.0026 51.0484 24.1398 56.1637C25.296 58.8966 26.6624 61.5594 28.1339 64.117C31.3223 69.5827 33.4946 75.4689 35.4216 81.5302C37.2785 87.4163 39.3807 93.2324 41.8332 98.8732C42.8493 101.256 44.7413 103.428 46.5982 105.215C50.3471 108.824 54.7267 108.929 59.1763 105.986C63.0654 103.393 64.6421 99.0484 63.3807 94.0732C63.3107 93.6178 59.5618 85.3141 57.4596 81.8805Z" fill="#DCDCDC"/>
<path d="M35.1409 24.8759C35.3161 25.1913 35.6665 26.1373 36.2621 26.838C37.8738 28.8351 40.5016 28.765 41.3775 26.4526C41.9731 24.946 42.1132 22.9139 41.7278 21.3022C41.0971 18.7446 38.8548 17.4482 37.138 18.1139C35.246 18.8146 34.265 21.6526 35.1409 24.8759Z" fill="#DCDCDC"/>
<path d="M33.6696 26.3126C32.8638 23.5097 31.182 22.0732 29.4652 22.3886C27.8185 22.7039 26.8726 24.5608 27.2229 26.9783C27.3281 27.7141 27.5732 28.4499 27.9236 29.1156C28.6243 30.6221 29.7456 31.5681 31.3923 31.2878C33.039 31.0075 33.6697 29.6761 33.8098 28.0645C33.8449 27.3637 33.6696 26.5929 33.6696 26.3126Z" fill="#DCDCDC"/>
<path d="M21.5821 33.2496C22.1778 35.3167 23.8946 36.6832 25.3311 36.2277C26.7325 35.8073 27.4683 33.67 26.9427 31.6379C26.3821 29.5357 24.7705 28.2043 23.2639 28.5897C21.6873 29.0102 20.9515 31.0773 21.5821 33.2496Z" fill="#DCDCDC"/>
<path d="M17.5528 39.9768C18.0783 41.9389 19.7251 43.4104 20.9864 43.0951C22.2127 42.7797 22.9484 40.7126 22.4929 38.8907C22.0024 36.9286 20.4258 35.5272 19.0243 35.8775C17.728 36.1929 17.0623 38.0848 17.5528 39.9768Z" fill="#DCDCDC"/>
</svg>
