<svg width="20" height="32" viewBox="0 0 20 32" fill="none" xmlns="http://www.w3.org/2000/svg">
<path d="M13.8132 8.59063L13.9054 8.67508C13.9109 8.66904 14.0656 8.51418 14.8543 8.51418H14.8544L17.4621 8.51324C17.4621 8.51324 17.4622 8.51324 17.4622 8.51324C18.3753 8.51322 19.125 7.79387 19.125 6.90068V2.49365C19.125 1.6019 18.3763 0.882595 17.4645 0.881083L17.4643 1.00608L17.4645 0.881083L13.5913 0.875H13.5911C11.1735 0.875 9.10768 1.64666 7.62621 3.11665C6.15123 4.58013 5.37633 6.61912 5.37633 9.00358V11.2555H2.53835C1.62501 11.2555 0.875 11.9748 0.875 12.868V17.6145C0.875 18.5075 1.625 19.2271 2.53835 19.2271H5.37633V30.1791C5.37633 31.0723 6.12634 31.7917 7.03968 31.7917H12.1183C13.0316 31.7917 13.7819 31.0724 13.7819 30.1791V19.2269H17.2785C18.1918 19.2269 18.9418 18.5076 18.9418 17.6148C18.9418 17.6148 18.9418 17.6148 18.9418 17.6148L18.9438 12.8683V12.8683C18.9438 12.2818 18.6137 11.7419 18.0868 11.4572L18.0867 11.4572C17.8413 11.3247 17.5575 11.2552 17.2661 11.2552H13.7819V9.5024C13.7819 9.20136 13.8029 9.0025 13.8306 8.87249C13.8586 8.7405 13.8914 8.69042 13.9056 8.67479L13.8132 8.59063ZM13.8132 8.59063C13.7418 8.66901 13.6569 8.89057 13.6569 9.5024V11.2552L17.4621 8.38824L14.8543 8.38918C14.059 8.38918 13.8565 8.54337 13.8132 8.59063ZM11.6725 18.2973V29.7439H7.48551V18.2973C7.48551 17.6766 6.9649 17.1791 6.33366 17.1791H2.98418V13.3033H6.33366C6.96492 13.3033 7.48551 12.8055 7.48551 12.1851V9.00358C7.48551 7.11603 8.07361 5.59891 9.12264 4.55386C10.1717 3.50878 11.6947 2.92284 13.5895 2.92281C13.5896 2.92281 13.5896 2.92281 13.5896 2.92281L17.0158 2.92823V6.46549L14.8539 6.46637C14.8538 6.46637 14.8538 6.46637 14.8538 6.46637C14.1262 6.46637 13.0297 6.54705 12.3272 7.31661C11.7446 7.95464 11.6725 8.79698 11.6725 9.5024V12.1851C11.6725 12.8057 12.1931 13.3033 12.8243 13.3033H16.8343L16.8327 17.1791H12.8246C12.1934 17.1791 11.6725 17.6766 11.6725 18.2973Z" fill="#C4C4C4" stroke="#BDBFC6" stroke-width="0.25"/>
</svg>
