<svg width="166" height="41" viewBox="0 0 166 41" fill="none" xmlns="http://www.w3.org/2000/svg">
<path d="M39.9875 26.6394C38.6791 27.593 37.2692 28.4646 35.7529 29.2593C34.3735 29.9822 32.989 30.6025 31.635 31.146L33.9069 37.0932C34.6271 38.9133 36.3463 40.3129 38.2835 40.3129H44.8407C45.0487 40.3129 45.2363 39.9797 45.3529 39.8002C45.4696 39.6208 45.4848 39.2978 45.3986 39.103L39.9875 26.6394Z" fill="white"/>
<path d="M9.01683 25.4654C10.0869 24.9937 11.2076 24.599 12.2929 24.2196C14.1795 23.5582 16.1066 22.8815 18.0032 21.7279L21.9741 11.715C22.1364 11.31 22.5167 11.0485 22.9529 11.0485C23.3839 11.0485 23.7693 11.31 23.9266 11.715L24.9459 14.2785C26.3608 12.3866 28.2169 10.4128 31.9241 8.22871L30.4584 4.8757C29.1602 1.91234 26.2492 0 23.0441 0C19.834 0 16.923 1.91747 15.6248 4.88596L6.10081 26.6959C6.45074 26.5472 6.80573 26.3985 7.1658 26.2498C7.76421 25.9986 8.38292 25.7423 9.01683 25.4654Z" fill="white"/>
<path d="M30.5396 31.5408L30.5559 31.5462L30.5396 31.5408Z" fill="white"/>
<path d="M7.70843 31.9766C6.49131 31.9766 5.49733 32.9814 5.49733 34.2119C5.49733 35.4424 6.49131 36.4472 7.70843 36.4472C8.92555 36.4472 9.91953 35.4424 9.91953 34.2119C9.91953 32.9763 8.92555 31.9766 7.70843 31.9766Z" fill="white"/>
<path d="M21.0308 23.7993C24.0077 22.4048 25.2908 19.7798 24.6061 16.719C23.744 17.9597 22.8667 19.2004 21.5075 20.477C20.6505 21.282 19.7833 21.9433 18.9161 22.5022C18.3887 22.8405 17.8612 23.1379 17.3338 23.4096C15.0822 24.5632 12.8356 25.1938 10.7309 25.9987C11.1924 25.9321 11.659 25.8706 12.1357 25.809C15.3053 25.3835 18.5814 24.9477 21.0308 23.7993Z" fill="white"/>
<path d="M46.9352 7.56225C46.3368 6.99829 44.643 6.20874 42.0667 6.20874C39.7998 6.20874 36.8534 6.81884 33.3795 8.72093C33.2527 8.78758 33.131 8.85936 33.0042 8.93114C32.7913 9.04906 32.5884 9.1721 32.3855 9.29002C28.577 11.551 26.8476 13.571 25.4429 15.5346C25.382 15.6166 25.3262 15.6987 25.2654 15.7807C25.803 17.4982 25.8131 19.1542 25.2806 20.6154C24.6518 22.338 23.3129 23.7172 21.401 24.6144C18.8299 25.8192 15.4828 26.2653 12.2473 26.7011C10.3303 26.9574 8.48941 27.2035 6.93251 27.5931C6.41017 27.8136 5.90303 28.0289 5.42126 28.2545C4.85327 28.5211 4.31571 28.798 3.81364 29.1056C2.62188 29.8336 1.62283 30.7411 0.872269 32.0638C0.846913 32.11 0.821556 32.1612 0.801271 32.2176C-0.466563 34.3812 -0.238353 37.2164 1.54676 39.1492C1.68368 39.2979 3.15944 41 5.75597 41C7.75914 41 9.26533 40.4361 10.6599 39.826C13.4745 38.5904 16.5173 35.9398 22.1567 33.4737C24.5047 32.4483 27.2584 31.5973 30.1592 30.4847C30.5092 30.3514 30.8591 30.213 31.2141 30.0694C33.9526 28.9671 36.7925 27.5829 39.5209 25.568C39.8303 25.3373 40.1396 25.1014 40.449 24.8554C41.5444 23.9735 42.6195 22.984 43.6541 21.8561C50.5967 14.299 48.0763 8.6389 46.9352 7.56225ZM7.70843 37.3343C6.00446 37.3343 4.61491 35.9346 4.61491 34.2069C4.61491 32.4842 5.99939 31.0794 7.70843 31.0794C9.41747 31.0794 10.8019 32.4791 10.8019 34.2069C10.7969 35.9346 9.4124 37.3343 7.70843 37.3343Z" fill="white"/>
<path d="M65.1869 24.6965H58.2291L56.9004 27.9418H53.3454L60.0243 12.7866H63.4525L70.1569 27.9418H66.5156L65.1869 24.6965ZM64.0915 22.0356L61.7131 16.2319L59.3346 22.0356H64.0915Z" fill="white"/>
<path d="M81.7905 27.9469L78.8998 23.7275H78.7274H75.71V27.9469H72.2412V12.7917H78.7274C80.0561 12.7917 81.2073 13.0173 82.1861 13.4634C83.1648 13.9094 83.9154 14.5452 84.4428 15.3706C84.9702 16.1909 85.2339 17.165 85.2339 18.2929C85.2339 19.4209 84.9651 20.3898 84.4327 21.205C83.8951 22.0202 83.1395 22.6457 82.1506 23.0764L85.5128 27.9469H81.7905ZM80.9132 16.3293C80.3705 15.873 79.5794 15.6474 78.5347 15.6474H75.71V20.9282H78.5347C79.5743 20.9282 80.3705 20.6975 80.9132 20.236C81.4558 19.7746 81.7246 19.1235 81.7246 18.2878C81.7296 17.4419 81.4558 16.7856 80.9132 16.3293Z" fill="white"/>
<path d="M102.471 12.7917L95.9852 27.9469H92.5569L86.091 12.7917H89.8387L94.3978 23.6147L99.0229 12.7917H102.471Z" fill="white"/>
<path d="M104.566 12.7917H108.035V27.9469H104.566V12.7917Z" fill="white"/>
<path d="M115.053 15.6474H110.256V12.7917H123.32V15.6474H118.522V27.9418H115.053V15.6474Z" fill="white"/>
<path d="M127.275 26.4089C126.084 25.2092 125.485 23.5019 125.485 21.2768V12.7917H128.954V21.1486C128.954 23.8608 130.07 25.2194 132.296 25.2194C133.381 25.2194 134.208 24.8913 134.781 24.235C135.354 23.5788 135.638 22.5483 135.638 21.1486V12.7917H139.066V21.2768C139.066 23.5019 138.468 25.2092 137.276 26.4089C136.084 27.6086 134.416 28.2033 132.276 28.2033C130.13 28.2084 128.467 27.6086 127.275 26.4089Z" fill="white"/>
<path d="M155.254 27.9469L155.234 18.8518L150.821 26.3422H149.26L144.868 19.0466V27.9418H141.612V12.7917H144.482L150.091 22.2099L155.614 12.7917H158.464L158.505 27.9469H155.254Z" fill="white"/>
<path d="M160.934 8.96191H159.854V8.6748H162.344V8.96191H161.258V11.792H160.934V8.96191Z" fill="white"/>
<path d="M166 8.6748V11.792H165.686V9.30029L164.474 11.3972H164.321L163.109 9.31567V11.792H162.795V8.6748H163.064L164.403 10.9819L165.726 8.6748H166Z" fill="white"/>
</svg>
