<svg width="177" height="44" viewBox="0 0 177 44" fill="none" xmlns="http://www.w3.org/2000/svg">
<path d="M42.6374 28.0968C41.2423 29.1026 39.7391 30.0218 38.1222 30.86C36.6514 31.6224 35.1752 32.2767 33.7314 32.8499L36.154 39.1225C36.9218 41.0421 38.7549 42.5183 40.8205 42.5183H47.8123C48.034 42.5183 48.2341 42.1668 48.3584 41.9776C48.4828 41.7883 48.499 41.4476 48.4071 41.2422L42.6374 28.0968Z" fill="#009851"/>
<path d="M9.61413 26.8585C10.7551 26.361 11.9501 25.9446 13.1073 25.5445C15.1189 24.8469 17.1737 24.1332 19.196 22.9165L23.43 12.3559C23.603 11.9287 24.0086 11.6529 24.4736 11.6529C24.9333 11.6529 25.3442 11.9287 25.5118 12.3559L26.5987 15.0596C28.1074 13.0642 30.0865 10.9824 34.0393 8.67886L32.4766 5.14243C31.0923 2.01696 27.9884 0 24.571 0C21.1481 0 18.0442 2.02236 16.66 5.15324L6.50488 28.1563C6.87799 27.9995 7.25651 27.8426 7.64043 27.6858C8.27851 27.4209 8.93821 27.1505 9.61413 26.8585Z" fill="#009851"/>
<path d="M32.563 33.2662L32.5792 33.2716L32.563 33.2662Z" fill="#009851"/>
<path d="M8.21895 33.7259C6.92118 33.7259 5.86133 34.7857 5.86133 36.0835C5.86133 37.3813 6.92118 38.4411 8.21895 38.4411C9.51672 38.4411 10.5766 37.3813 10.5766 36.0835C10.5766 34.7803 9.51672 33.7259 8.21895 33.7259Z" fill="#009851"/>
<path d="M22.4243 25.1011C25.5984 23.6303 26.9665 20.8617 26.2365 17.6335C25.3173 18.9421 24.3818 20.2507 22.9326 21.5971C22.0187 22.4461 21.0941 23.1436 20.1694 23.733C19.607 24.0899 19.0447 24.4035 18.4823 24.6901C16.0814 25.9068 13.686 26.5719 11.4419 27.4209C11.934 27.3506 12.4314 27.2857 12.9397 27.2208C16.3194 26.772 19.8125 26.3123 22.4243 25.1011Z" fill="#009851"/>
<path d="M50.0454 7.97589C49.4073 7.38108 47.6012 6.54834 44.8543 6.54834C42.4372 6.54834 39.2955 7.19182 35.5914 9.19796C35.4562 9.26826 35.3264 9.34396 35.1913 9.41966C34.9641 9.54403 34.7479 9.67381 34.5316 9.79818C30.4706 12.1828 28.6267 14.3133 27.1288 16.3844C27.064 16.4709 27.0045 16.5574 26.9396 16.6439C27.5128 18.4554 27.5236 20.202 26.9558 21.7431C26.2853 23.56 24.8577 25.0146 22.8192 25.9609C20.0776 27.2316 16.5087 27.702 13.0588 28.1617C11.0148 28.432 9.05195 28.6916 7.39188 29.1026C6.83492 29.3351 6.29418 29.5622 5.78048 29.8001C5.17485 30.0813 4.60167 30.3733 4.06634 30.6977C2.7956 31.4656 1.73035 32.4227 0.930054 33.8178C0.903017 33.8665 0.87598 33.9205 0.854351 33.98C-0.497496 36.2619 -0.254164 39.2522 1.64924 41.2908C1.79524 41.4476 3.36879 43.2429 6.13737 43.2429C8.27329 43.2429 9.87928 42.6481 11.3663 42.0046C14.3674 40.7014 17.6118 37.9058 23.6249 35.3048C26.1285 34.2233 29.0647 33.3257 32.1577 32.1523C32.5308 32.0117 32.9039 31.8657 33.2825 31.7143C36.2024 30.5517 39.2306 29.0917 42.1398 26.9666C42.4696 26.7233 42.7995 26.4746 43.1293 26.215C44.2973 25.2849 45.4437 24.2413 46.5468 23.0517C53.9495 15.0812 51.262 9.11144 50.0454 7.97589ZM8.21921 39.3766C6.40233 39.3766 4.92071 37.9004 4.92071 36.0781C4.92071 34.2612 6.39692 32.7796 8.21921 32.7796C10.0415 32.7796 11.5177 34.2558 11.5177 36.0781C11.5123 37.9004 10.0361 39.3766 8.21921 39.3766Z" fill="#009851"/>
<path d="M69.5066 26.0474H62.0877L60.6709 29.4703H56.8804L64.0019 13.486H67.6573L74.8059 29.4703H70.9234L69.5066 26.0474ZM68.3386 23.2409L65.8026 17.1198L63.2665 23.2409H68.3386Z" fill="white"/>
<path d="M87.2099 29.4757L84.1277 25.0254H83.9439H80.7265V29.4757H77.0278V13.4915H83.9439C85.3606 13.4915 86.5881 13.7294 87.6317 14.1998C88.6753 14.6703 89.4756 15.3408 90.038 16.2114C90.6004 17.0766 90.8816 18.104 90.8816 19.2936C90.8816 20.4832 90.595 21.5052 90.0272 22.365C89.454 23.2248 88.6483 23.8845 87.5939 24.3387L91.179 29.4757H87.2099ZM86.2745 17.2226C85.6959 16.7413 84.8523 16.5034 83.7384 16.5034H80.7265V22.073H83.7384C84.8469 22.073 85.6959 21.8296 86.2745 21.343C86.8531 20.8563 87.1396 20.1696 87.1396 19.2882C87.1451 18.396 86.8531 17.7038 86.2745 17.2226Z" fill="white"/>
<path d="M109.262 13.4915L102.346 29.4757H98.6903L91.7959 13.4915H95.792L100.653 24.9065L105.585 13.4915H109.262Z" fill="white"/>
<path d="M111.495 13.4915H115.194V29.4757H111.495V13.4915Z" fill="white"/>
<path d="M122.677 16.5034H117.562V13.4915H131.491V16.5034H126.376V29.4703H122.677V16.5034Z" fill="white"/>
<path d="M135.709 27.8535C134.438 26.5881 133.8 24.7875 133.8 22.4407V13.4915H137.499V22.3055C137.499 25.166 138.689 26.599 141.062 26.599C142.22 26.599 143.101 26.2529 143.712 25.5607C144.323 24.8686 144.626 23.7817 144.626 22.3055V13.4915H148.281V22.4407C148.281 24.7875 147.643 26.5881 146.372 27.8535C145.102 29.1188 143.323 29.7461 141.041 29.7461C138.753 29.7515 136.98 29.1188 135.709 27.8535Z" fill="white"/>
<path d="M165.541 29.4757L165.52 19.883L160.815 27.7832H159.15L154.467 20.0885V29.4703H150.996V13.4915H154.056L160.037 23.4248L165.925 13.4915H168.964L169.008 29.4757H165.541Z" fill="white"/>
<path d="M171.598 9.45211H170.446V9.14929H173.101V9.45211H171.944V12.437H171.598V9.45211Z" fill="white"/>
<path d="M177 9.14929V12.437H176.665V9.80899L175.372 12.0206H175.21L173.918 9.82522V12.437H173.583V9.14929H173.869L175.297 11.5826L176.708 9.14929H177Z" fill="white"/>
</svg>
