<svg width="177" height="43" viewBox="0 0 177 43" fill="none" xmlns="http://www.w3.org/2000/svg">
<path d="M42.6372 27.939C41.2421 28.9391 39.7389 29.8532 38.1221 30.6867C36.6512 31.4448 35.175 32.0954 33.7313 32.6654L36.1538 38.9027C36.9216 40.8116 38.7547 42.2795 40.8203 42.2795H47.8121C48.0338 42.2795 48.2339 41.93 48.3582 41.7418C48.4826 41.5536 48.4988 41.2148 48.4069 41.0105L42.6372 27.939Z" fill="#009851"/>
<path d="M9.61431 26.7076C10.7553 26.213 11.9503 25.7989 13.1075 25.401C15.119 24.7074 17.1738 23.9976 19.1962 22.7878L23.4302 12.2865C23.6032 11.8617 24.0088 11.5875 24.4738 11.5875C24.9334 11.5875 25.3444 11.8617 25.512 12.2865L26.5989 14.975C28.1076 12.9909 30.0867 10.9207 34.0395 8.63011L32.4767 5.11354C31.0925 2.00563 27.9886 0 24.5711 0C21.1483 0 18.0444 2.011 16.6601 5.1243L6.50507 27.9981C6.87818 27.8422 7.25669 27.6863 7.64062 27.5303C8.27869 27.2669 8.93839 26.998 9.61431 26.7076Z" fill="#009851"/>
<path d="M32.5633 33.0794L32.5798 33.0849L32.5633 33.0794Z" fill="#009851"/>
<path d="M8.21919 33.5364C6.92142 33.5364 5.86157 34.5903 5.86157 35.8808C5.86157 37.1713 6.92142 38.2252 8.21919 38.2252C9.51697 38.2252 10.5768 37.1713 10.5768 35.8808C10.5768 34.585 9.51697 33.5364 8.21919 33.5364Z" fill="#009851"/>
<path d="M22.4244 24.9601C25.5986 23.4976 26.9666 20.7445 26.2366 17.5345C25.3174 18.8357 24.3819 20.1369 22.9327 21.4758C22.0189 22.32 21.0942 23.0136 20.1695 23.5997C19.6072 23.9546 19.0448 24.2665 18.4824 24.5515C16.0816 25.7613 13.6861 26.4227 11.442 27.2669C11.9341 27.1969 12.4316 27.1324 12.9399 27.0679C16.3195 26.6216 19.8127 26.1646 22.4244 24.9601Z" fill="#009851"/>
<path d="M50.0454 7.9311C49.4073 7.33963 47.6012 6.51157 44.8543 6.51157C42.4372 6.51157 39.2955 7.15143 35.5914 9.1463C35.4562 9.21621 35.3264 9.29148 35.1913 9.36676C34.9641 9.49043 34.7479 9.61948 34.5316 9.74315C30.4706 12.1144 28.6267 14.233 27.1288 16.2924C27.064 16.3784 27.0045 16.4644 26.9396 16.5505C27.5128 18.3518 27.5236 20.0885 26.9558 21.621C26.2853 23.4277 24.8577 24.8741 22.8192 25.8151C20.0776 27.0787 16.5087 27.5465 13.0588 28.0035C11.0148 28.2724 9.05195 28.5305 7.39188 28.9391C6.83492 29.1703 6.29418 29.3962 5.78048 29.6327C5.17485 29.9123 4.60167 30.2027 4.06634 30.5253C2.7956 31.2889 1.73035 32.2406 0.930054 33.6279C0.903017 33.6763 0.87598 33.73 0.854351 33.7892C-0.497496 36.0583 -0.254164 39.0318 1.64924 41.0589C1.79524 41.2148 3.36879 43 6.13737 43C8.27329 43 9.87928 42.4085 11.3663 41.7687C14.3674 40.4728 17.6118 37.6929 23.6249 35.1065C26.1285 34.0311 29.0647 33.1386 32.1577 31.9717C32.5308 31.8319 32.9039 31.6868 33.2825 31.5362C36.2024 30.3801 39.2306 28.9284 42.1398 26.8152C42.4696 26.5732 42.7995 26.3259 43.1293 26.0678C44.2973 25.1429 45.4437 24.1052 46.5468 22.9222C53.9495 14.9965 51.262 9.06027 50.0454 7.9311ZM8.21921 39.1554C6.40233 39.1554 4.92071 37.6875 4.92071 35.8755C4.92071 34.0688 6.39692 32.5955 8.21921 32.5955C10.0415 32.5955 11.5177 34.0634 11.5177 35.8755C11.5123 37.6875 10.0361 39.1554 8.21921 39.1554Z" fill="#009851"/>
<path d="M69.5066 25.9011H62.0876L60.6709 29.3047H56.8803L64.0018 13.4103H67.6572L74.8058 29.3047H70.9233L69.5066 25.9011ZM68.3386 23.1104L65.8025 17.0236L63.2664 23.1104H68.3386Z" fill="black"/>
<path d="M87.2103 29.3101L84.1281 24.8848H83.9443H80.7268V29.3101H77.0282V13.4156H83.9443C85.361 13.4156 86.5885 13.6522 87.6321 14.12C88.6757 14.5878 89.476 15.2546 90.0384 16.1203C90.6007 16.9806 90.8819 18.0022 90.8819 19.1852C90.8819 20.3681 90.5953 21.3844 90.0276 22.2393C89.4544 23.0943 88.6487 23.7503 87.5942 24.2019L91.1793 29.3101H87.2103ZM86.2748 17.1258C85.6962 16.6472 84.8527 16.4106 83.7388 16.4106H80.7268V21.949H83.7388C84.8473 21.949 85.6962 21.707 86.2748 21.2231C86.8534 20.7391 87.14 20.0563 87.14 19.1798C87.1454 18.2926 86.8534 17.6043 86.2748 17.1258Z" fill="black"/>
<path d="M109.262 13.4156L102.346 29.3101H98.6902L91.7958 13.4156H95.7918L100.653 24.7665L105.585 13.4156H109.262Z" fill="black"/>
<path d="M111.495 13.4156H115.194V29.3101H111.495V13.4156Z" fill="black"/>
<path d="M122.677 16.4106H117.562V13.4156H131.491V16.4106H126.376V29.3047H122.677V16.4106Z" fill="black"/>
<path d="M135.709 27.697C134.438 26.4388 133.8 24.6482 133.8 22.3146V13.4156H137.499V22.1802C137.499 25.0246 138.689 26.4495 141.063 26.4495C142.22 26.4495 143.101 26.1054 143.712 25.4172C144.323 24.7289 144.626 23.6481 144.626 22.1802V13.4156H148.281V22.3146C148.281 24.6482 147.643 26.4388 146.373 27.697C145.102 28.9552 143.323 29.579 141.041 29.579C138.754 29.5843 136.98 28.9552 135.709 27.697Z" fill="black"/>
<path d="M165.542 29.3101L165.52 19.7713L160.816 27.6271H159.15L154.467 19.9756V29.3047H150.996V13.4156H154.056L160.037 23.2932L165.926 13.4156H168.965L169.008 29.3101H165.542Z" fill="black"/>
<path d="M171.598 9.39901H170.446V9.0979H173.101V9.39901H171.944V12.3671H171.598V9.39901Z" fill="black"/>
<path d="M177 9.0979V12.3671H176.665V9.7539L175.372 11.9531H175.21L173.918 9.77003V12.3671H173.583V9.0979H173.869L175.297 11.5176L176.708 9.0979H177Z" fill="black"/>
</svg>
