<svg width="22" height="16" viewBox="0 0 22 16" fill="none" xmlns="http://www.w3.org/2000/svg">
<g clip-path="url(#clip0)">
<path d="M10.4126 10.5032C10.8049 10.7632 11.2179 10.7761 11.5934 10.4932C12.1382 10.0829 21.9956 2.55356 21.9956 2.55356C21.9956 2.55356 22.0067 9.17853 21.9941 12.2397C21.9883 13.7126 21.0312 14.9142 19.6538 15.2171C19.4057 15.2715 8.45211 15.2593 3.23554 15.3044C1.28025 15.3209 -0.0073304 13.8637 3.14036e-05 12.1724C0.0125465 9.29955 3.14036e-05 2.84857 3.14036e-05 2.5464C0.0302148 2.53709 10.1924 10.3572 10.4126 10.5032Z" fill="#01824C"/>
<path d="M0.848877 0.926482C1.45402 0.294201 2.17547 0.000616749 3.02797 0.000616749C6.50642 0.000616749 17.1803 -0.00296355 19.0384 0.00276493C19.8843 0.00562917 20.5837 0.336449 21.1814 0.965149C20.7839 1.2752 20.4018 1.57738 20.0146 1.87383C17.9761 3.43341 11.7142 8.34844 11.6155 8.41432C11.1208 8.74371 10.8064 8.75946 10.3368 8.39141C9.6639 7.8651 1.59242 1.51294 0.848877 0.926482Z" fill="#01824C"/>
</g>
<defs>
<clipPath id="clip0">
<rect width="22" height="15.3043" fill="white"/>
</clipPath>
</defs>
</svg>
