<svg width="74" height="69" viewBox="0 0 74 69" fill="none" xmlns="http://www.w3.org/2000/svg">
<g clip-path="url(#clip0)">
<path d="M36.872 5.75C31.444 5.75 27.0437 9.86901 27.0437 14.95C27.0437 20.031 31.444 24.15 36.872 24.15C42.2975 24.1443 46.6941 20.0287 46.7003 14.95C46.7003 9.86901 42.3 5.75 36.872 5.75ZM36.872 21.85C32.8026 21.8463 29.5048 18.7592 29.5008 14.95C29.5008 11.1392 32.8009 8.05 36.872 8.05C40.9431 8.05 44.2432 11.1392 44.2432 14.95C44.2432 18.7608 40.9431 21.85 36.872 21.85Z" fill="white"/>
<path d="M72.8877 32.2598L58.1453 27.6598C57.9292 27.5925 57.6976 27.5822 57.4757 27.6299L47.4374 29.8379C50.3736 24.0511 52.8429 18.2079 52.8429 14.95C52.8429 6.69329 45.6926 0 36.872 0C28.0514 0 20.9011 6.69329 20.9011 14.95C20.9011 18.178 23.3237 23.9407 26.2157 29.67L17.514 27.6345C17.2968 27.5816 17.0682 27.5872 16.8543 27.6506L0.883336 32.2506C0.367659 32.3991 0.0158377 32.845 0.0159913 33.35V67.85C0.0159913 68.4851 0.566067 69 1.24452 69C1.36692 68.9997 1.48854 68.9826 1.60571 68.9494L17.2486 64.4437L36.5747 68.9655C36.7648 69.0092 36.9632 69.0092 37.1533 68.9655L57.6342 64.4437L72.1198 68.9414C72.7651 69.1376 73.4582 68.8071 73.6679 68.2029C73.7076 68.0889 73.7278 67.9697 73.728 67.85V33.35C73.7275 32.8552 73.3892 32.4162 72.8877 32.2598ZM23.3581 14.95C23.3669 7.96706 29.4122 2.30819 36.872 2.3C44.3318 2.30819 50.3771 7.96706 50.3859 14.95C50.3859 18.2229 47.4239 24.7365 44.1695 30.9039C41.3967 36.1629 38.4138 41.17 36.872 43.7C33.5193 38.1961 23.3581 21.0139 23.3581 14.95ZM71.2709 66.2561L58.0703 62.1586C57.855 62.0901 57.6231 62.08 57.402 62.1299L36.8855 66.6666L17.5128 62.1345C17.2959 62.0823 17.0679 62.0878 16.8543 62.1506L2.47306 66.2929V34.1987L17.2486 29.9437L27.6101 32.3702C31.4185 39.575 35.4948 46.077 35.8142 46.5842C36.1593 47.131 36.9127 47.3124 37.4969 46.9894C37.6754 46.8907 37.8243 46.7512 37.9298 46.5842C38.2479 46.0805 42.2726 39.6554 46.0614 32.5047L57.6993 29.9437L71.2709 34.1791V66.2561Z" fill="white"/>
</g>
<defs>
<clipPath id="clip0">
<rect width="73.712" height="69" fill="white" transform="translate(0.0159912)"/>
</clipPath>
</defs>
</svg>
