<svg width="125" height="100" viewBox="0 0 125 100" fill="none" xmlns="http://www.w3.org/2000/svg">
<path d="M74.1773 12.6198C73.7531 13.044 73.3643 13.2207 72.728 13.15C64.1734 12.2663 55.6188 11.4179 47.0995 10.5342C46.6753 10.4988 46.1804 10.2867 45.8976 9.96858C43.706 7.81226 41.5143 5.62057 39.358 3.46424C37.8026 1.94421 36.4947 1.90886 34.9746 3.46424C31.8992 6.53966 28.8591 9.61509 25.7484 12.6552C25.5009 12.9026 25.0414 13.15 24.6879 13.1147C16.8403 12.7612 10.5127 18.912 10.8309 26.7596C10.8662 27.3959 10.6541 27.7848 10.2299 28.1736C7.11916 31.249 4.04375 34.3244 0.968333 37.3999C0.261341 38.1068 -0.198203 38.8845 0.0845935 39.839C0.296691 40.5106 0.756236 41.1822 1.25113 41.7125C8.2857 48.7824 15.3203 55.7816 22.3548 62.8162C22.6023 63.0636 22.9204 63.205 23.3093 63.4878C20.2692 65.9623 18.5371 68.8256 19.1734 72.608C19.8097 76.3904 22.1781 78.6881 25.8544 79.7486C25.1474 83.3189 25.9605 86.3944 28.7885 88.7274C31.6518 91.0605 34.8686 91.2019 38.1914 89.7879C40.3124 95.7974 48.0186 97.7769 52.7201 93.2168C52.9322 93.3936 53.1443 93.6057 53.3211 93.7824C54.5936 95.055 55.8309 96.3629 57.1742 97.6002C61.4515 101.665 68.3446 100.393 70.9605 95.0904C71.0666 94.8783 71.1726 94.7015 71.314 94.4541C73.6117 96.8225 76.2983 97.8476 79.4797 97.2467C82.6612 96.6811 84.7822 94.7368 86.0548 91.8382C89.5544 94.1359 93.1247 94.3834 96.4475 91.9443C100.159 89.2223 100.831 85.4753 99.3109 81.2333C99.4169 81.1626 99.4876 81.0919 99.5937 81.0566C105.568 78.9356 107.512 71.088 102.386 66.3511C101.432 65.4674 100.548 64.513 99.5583 63.5585C99.8058 63.3111 99.9825 63.099 100.195 62.8869C108.078 55.0039 115.961 47.121 123.879 39.238C125.293 37.824 125.328 36.41 123.914 35.0314C112.602 23.7196 101.255 12.4077 89.9432 1.09583C89.2009 0.353487 88.5292 0 87.8223 0C87.1153 0 86.4083 0.353487 85.7013 1.09583C81.8128 4.98428 77.9951 8.80204 74.1773 12.6198ZM23.8749 18.205C28.3289 18.205 31.8285 21.74 31.8285 26.1587C31.8285 30.5774 28.2936 34.1477 23.8749 34.1477C19.4208 34.1477 15.8505 30.5774 15.8505 26.1233C15.8859 21.74 19.4562 18.205 23.8749 18.205ZM26.2079 74.4816C24.8293 73.8453 24.193 72.7141 24.1223 71.3708C24.1577 70.275 24.4758 69.4619 25.1474 68.7903C26.42 67.5177 27.6926 66.2451 29.0005 65.0079C30.4499 63.6292 32.6769 63.6646 34.0202 65.0432C35.3988 66.4572 35.4342 68.5782 34.0202 70.0629C32.7476 71.3708 31.475 72.6787 30.1317 73.9159C29.0005 74.9057 27.6573 75.1179 26.2079 74.4816ZM36.7068 84.5915C35.5756 85.652 34.1969 85.8641 32.783 85.2278C31.4043 84.6269 30.768 83.4957 30.7327 82.5059C30.7327 81.0212 31.0862 80.1728 31.7578 79.4658C33.5253 77.6984 35.2928 75.8955 37.0956 74.1634C38.5449 72.7494 40.7013 72.7848 42.1152 74.1634C43.4939 75.542 43.5292 77.7337 42.1506 79.1831C40.3478 81.0212 38.5449 82.8241 36.7068 84.5915ZM50.4224 88.1618C49.9275 88.7628 49.3619 89.3284 48.761 89.8233C47.6298 90.7423 46.3218 90.8838 45.0139 90.2828C43.706 89.6819 43.0343 88.5507 42.9636 86.9953C42.6808 85.2278 45.8976 82.1524 47.7358 82.3645C49.1852 82.5059 50.281 83.1068 50.9173 84.4148C51.4829 85.7227 51.3415 87.0307 50.4224 88.1618ZM100.053 74.0927C99.629 75.4713 98.6392 76.249 97.2252 76.4965C95.988 76.7086 94.9275 76.2844 94.0438 75.4007C92.4177 73.7392 90.7563 72.1131 89.0948 70.4871C88.2464 69.6387 87.0446 69.5326 86.0548 70.0629C85.1003 70.5931 84.5347 71.7243 84.8529 72.7848C84.9943 73.315 85.3124 73.8453 85.7013 74.2341C88.3878 76.956 91.1098 79.6779 93.8317 82.3999C94.9275 83.4957 95.281 84.8036 94.7154 86.2883C94.1852 87.6669 93.16 88.4093 91.7107 88.5507C90.5088 88.6567 89.519 88.1972 88.706 87.3488C85.4892 84.132 82.2724 80.9152 79.0556 77.7337C78.8435 77.5216 78.6667 77.3095 78.4546 77.1328C77.3941 76.1783 75.8741 76.2137 74.9197 77.2035C73.9652 78.1933 73.9299 79.7133 74.9197 80.7384C76.1922 82.0817 77.5355 83.3543 78.8435 84.6622C79.3737 85.1925 79.9039 85.6874 80.3988 86.2176C81.8482 87.7376 81.8835 89.9647 80.4342 91.3433C79.0202 92.7219 76.8285 92.6866 75.3438 91.2373C72.8694 88.7981 70.4303 86.3237 67.9558 83.8845C66.5418 82.4706 65.0571 82.2938 63.9259 83.425C62.7947 84.5562 62.9715 86.0762 64.3501 87.4548C64.845 87.9497 65.3399 88.4093 65.7995 88.9042C67.1074 90.3182 67.0721 92.4391 65.7641 93.8178C64.4562 95.1611 62.2645 95.3025 60.8859 94.0299C59.2951 92.5452 57.7398 90.9545 56.2197 89.3991C56.0783 89.2577 56.0076 88.9042 56.0783 88.7274C57.9165 83.7785 54.3108 78.1225 48.6903 77.3095C48.5489 77.2742 48.4428 77.2388 48.2661 77.2035C48.4075 72.608 45.12 68.3307 39.8175 68.0126C39.8175 67.553 39.8529 67.0935 39.8175 66.6339C39.4994 61.2255 34.6918 57.6551 29.2126 58.8924C28.5057 59.0691 27.834 59.3873 27.127 59.564C26.8442 59.6347 26.42 59.5994 26.2786 59.4226C22.3548 55.5342 18.431 51.6104 14.5072 47.6866C14.4365 47.6159 14.4365 47.5452 14.1891 47.2977C14.5426 47.0503 14.9314 46.8028 15.2496 46.52C17.5119 44.293 19.739 42.066 21.966 39.8036C22.3902 39.3794 22.779 39.2027 23.38 39.238C31.2629 39.4855 37.3784 33.264 37.0603 25.381C37.0603 25.0629 37.2017 24.6386 37.4137 24.4265C40.2064 21.5986 42.999 18.806 45.827 16.0134C46.039 15.8013 46.4632 15.6245 46.7814 15.6245C52.2606 16.1548 57.7398 16.7203 63.2189 17.2506C63.325 17.2506 63.3957 17.2859 63.6078 17.3566C63.3957 17.4627 63.325 17.5687 63.2189 17.6041C56.75 19.6544 51.1647 23.2954 45.7916 27.3252C43.706 28.9159 41.5496 30.4713 39.5347 32.1681C38.4389 33.0872 37.3784 34.077 36.5654 35.2435C34.3383 38.3896 34.9393 42.0307 38.1914 44.0809C42.3273 46.6968 46.6753 47.0856 51.0587 44.5051C52.9676 43.3739 54.9471 42.3488 56.9267 41.3944C58.5528 40.6167 60.3556 40.546 62.1585 40.652C64.5622 40.8288 66.966 40.9702 69.3344 41.1823C69.7233 41.2176 70.1828 41.4297 70.4656 41.7125C80.01 51.1862 89.519 60.6952 99.0281 70.2043C100.089 71.3354 100.513 72.5727 100.053 74.0927ZM110.517 45.2474C105.674 50.0903 100.796 54.9686 95.7406 60.0589C95.4931 59.7054 95.2457 59.3166 94.9275 58.9631C87.7162 51.7518 80.4695 44.5405 73.2582 37.2938C72.5159 36.5514 71.7382 36.198 70.7131 36.1273C67.8851 35.9859 65.0218 35.8091 62.1938 35.5617C58.8356 35.2435 55.6895 35.9505 52.7908 37.6119C51.094 38.5664 49.3973 39.5562 47.7005 40.546C45.8976 41.6065 42.0799 41.1115 40.6306 39.5915C40.2064 39.1673 40.2064 38.6724 40.5245 38.2482C40.9841 37.6473 41.4436 37.011 42.0445 36.5868C46.2511 33.4407 50.5284 30.2946 54.7704 27.1838C55.3006 26.795 55.9369 26.5829 56.5379 26.3354C62.2999 24.0024 68.0618 21.7046 73.8238 19.3362C74.7783 18.9474 75.662 18.2404 76.4397 17.5334C77.5709 16.5082 78.596 15.3417 79.7272 14.2105C90.0493 24.7093 100.301 34.9961 110.517 45.2474Z" fill="#DCDCDC"/>
</svg>
