<svg width="13" height="13" viewBox="0 0 13 13" fill="none" xmlns="http://www.w3.org/2000/svg">
<path d="M6.37403 3.96875C5.05689 3.96875 3.98377 5.03783 3.98377 6.35C3.98377 7.66217 5.05689 8.73125 6.37403 8.73125C7.69116 8.73125 8.76429 7.66217 8.76429 6.35C8.76429 5.03783 7.69116 3.96875 6.37403 3.96875ZM12.509 5.96553L10.1511 4.79227L10.9852 2.30188C11.0973 1.96453 10.7761 1.64455 10.44 1.75865L7.94015 2.58961L6.75996 0.238125C6.6006 -0.079375 6.14745 -0.079375 5.9881 0.238125L4.8104 2.58713L2.3081 1.75617C1.96947 1.64455 1.64828 1.96453 1.76282 2.29939L2.59692 4.78979L0.239026 5.96553C-0.0796753 6.12428 -0.0796753 6.57572 0.239026 6.73447L2.59692 7.90773L1.76282 10.4006C1.65077 10.7379 1.97196 11.0579 2.3081 10.9438L4.80791 10.1129L5.98561 12.4619C6.14496 12.7794 6.59811 12.7794 6.75747 12.4619L7.93517 10.1129L10.435 10.9438C10.7736 11.0555 11.0948 10.7355 10.9803 10.4006L10.1462 7.91022L12.5041 6.73695C12.8277 6.57572 12.8277 6.12428 12.509 5.96553ZM8.62735 8.59482C7.38491 9.83258 5.36315 9.83258 4.12071 8.59482C2.87827 7.35707 2.87827 5.34293 4.12071 4.10518C5.36315 2.86742 7.38491 2.86742 8.62735 4.10518C9.86978 5.34293 9.86978 7.35707 8.62735 8.59482Z" fill="#C4C4C4"/>
</svg>
